<svg width="63" height="63" viewBox="0 0 63 63" fill="none"
    xmlns="http://www.w3.org/2000/svg">
    <rect opacity="0.1" x="0.574219" y="0.527832" width="61.731" height="61.731" rx="11.8713" fill="#A93691"/>
    <path d="M27.9758 32.6426L30.8039 35.4707L35.5174 28.8717M31.7466 20.0282C29.0435 22.5881 25.3935 24.1582 21.3768 24.1582C21.313 24.1582 21.2492 24.1578 21.1856 24.157C20.6979 25.6404 20.4341 27.2253 20.4341 28.8718C20.4341 35.9 25.241 41.8056 31.7466 43.48C38.2521 41.8056 43.0591 35.9 43.0591 28.8718C43.0591 27.2253 42.7953 25.6404 42.3076 24.157C42.2439 24.1578 42.1802 24.1582 42.1164 24.1582C38.0997 24.1582 34.4497 22.5881 31.7466 20.0282Z" stroke="#A93691" stroke-width="1.50833" stroke-linecap="round" stroke-linejoin="round"/>
</svg>
