<svg width="24" height="24" viewBox="0 0 24 24" fill="none" xmlns="http://www.w3.org/2000/svg">
<mask id="mask0_2567_197" style="mask-type:luminance" maskUnits="userSpaceOnUse" x="6" y="7" width="12" height="10">
<path fill-rule="evenodd" clip-rule="evenodd" d="M6.50024 7.47852H17.3966V16.418H6.50024V7.47852Z" fill="white"/>
</mask>
<g mask="url(#mask0_2567_197)">
<path d="M17.3969 8.18904C17.3969 8.32167 17.36 8.45241 17.288 8.56799L12.5502 16.0863C12.4195 16.2928 12.193 16.4188 11.9486 16.4188C11.7042 16.4188 11.4778 16.2928 11.347 16.0863L6.60924 8.56799C6.47187 8.34915 6.46335 8.07252 6.58935 7.84609C6.7144 7.61873 6.95219 7.47852 7.21082 7.47852H16.6864C16.945 7.47852 17.1828 7.61873 17.3079 7.84609C17.3676 7.95315 17.3969 8.07157 17.3969 8.18904Z" fill="#0F172A"/>
</g>
</svg>
