<svg xmlns="http://www.w3.org/2000/svg" width="21" height="27" viewBox="0 0 21 27" fill="none">
    <path fill-rule="evenodd" clip-rule="evenodd" d="M5.5 13.3855C5.5 13.1866 5.57902 12.9958 5.71967 12.8552C5.86032 12.7145 6.05109 12.6355 6.25 12.6355H12.888L10.73 10.6755C10.6557 10.6081 10.5956 10.5264 10.5534 10.4353C10.5112 10.3443 10.4877 10.2456 10.4843 10.1453C10.4809 10.045 10.4977 9.94503 10.5337 9.85132C10.5696 9.75761 10.624 9.67207 10.6937 9.59976C10.7633 9.52746 10.8467 9.46987 10.939 9.43041C11.0313 9.39094 11.1306 9.3704 11.2309 9.37C11.3313 9.3696 11.4307 9.38936 11.5233 9.42809C11.6159 9.46683 11.6998 9.52376 11.77 9.59551L15.27 12.8455C15.3426 12.9155 15.4003 12.9993 15.4398 13.0921C15.4792 13.1849 15.4995 13.2847 15.4995 13.3855C15.4995 13.4863 15.4792 13.5861 15.4398 13.6789C15.4003 13.7717 15.3426 13.8555 15.27 13.9255L11.77 17.1755C11.6998 17.2473 11.6159 17.3042 11.5233 17.3429C11.4307 17.3817 11.3313 17.4014 11.2309 17.401C11.1306 17.4006 11.0313 17.3801 10.939 17.3406C10.8467 17.3011 10.7633 17.2435 10.6937 17.1712C10.624 17.0989 10.5696 17.0134 10.5337 16.9197C10.4977 16.826 10.4809 16.726 10.4843 16.6257C10.4877 16.5254 10.5112 16.4268 10.5534 16.3357C10.5956 16.2446 10.6557 16.1629 10.73 16.0955L12.888 14.1355H6.25C6.05109 14.1355 5.86032 14.0565 5.71967 13.9158C5.57902 13.7752 5.5 13.5844 5.5 13.3855Z" fill="#A93691"/>
</svg>