<svg width="137" height="47" viewBox="0 0 137 47" fill="none" xmlns="http://www.w3.org/2000/svg">
<path d="M126.093 0.600246H10.9475C10.5277 0.600246 10.113 0.600246 9.6944 0.602529C9.34399 0.604812 8.9964 0.611443 8.64261 0.617024C7.87403 0.626043 7.10727 0.69347 6.34897 0.818718C5.59174 0.946692 4.85824 1.18796 4.17325 1.53436C3.48912 1.8837 2.86399 2.33762 2.32057 2.87967C1.7743 3.42019 1.31894 4.04496 0.972001 4.72995C0.624099 5.41358 0.382867 6.14615 0.25663 6.90236C0.129193 7.65762 0.0606178 8.42159 0.0515202 9.18741C0.0408984 9.53738 0.0397767 9.88849 0.0341797 10.2385V36.6207C0.0397767 36.9751 0.0408984 37.3184 0.0515202 37.6729C0.0606206 38.4387 0.129195 39.2026 0.25663 39.9578C0.382518 40.7145 0.623765 41.4475 0.972001 42.1314C1.31878 42.8141 1.77421 43.4364 2.32057 43.9739C2.86193 44.5184 3.48746 44.9725 4.17325 45.3193C4.85823 45.6666 5.59166 45.9093 6.34897 46.0392C7.1074 46.1635 7.87409 46.231 8.64261 46.2411C8.9964 46.2488 9.34399 46.2533 9.6944 46.2533C10.113 46.2556 10.5278 46.2556 10.9475 46.2556H126.093C126.505 46.2556 126.922 46.2556 127.333 46.2533C127.683 46.2533 128.04 46.2488 128.389 46.2411C129.156 46.2315 129.921 46.164 130.678 46.0392C131.438 45.9084 132.174 45.6657 132.862 45.3193C133.547 44.9724 134.172 44.5182 134.713 43.9739C135.258 43.4343 135.715 42.8125 136.066 42.1314C136.411 41.447 136.651 40.7141 136.774 39.9578C136.902 39.2025 136.973 38.4388 136.987 37.6729C136.991 37.3184 136.991 36.9751 136.991 36.6207C137 36.206 137 35.7936 137 35.3722V11.4846C137 11.0667 137 10.652 136.991 10.2385C136.991 9.88849 136.991 9.53738 136.987 9.18736C136.973 8.42148 136.902 7.65768 136.774 6.90232C136.65 6.14655 136.411 5.41403 136.066 4.72991C135.359 3.3569 134.239 2.2393 132.862 1.53426C132.174 1.18871 131.438 0.947501 130.678 0.818615C129.922 0.692816 129.156 0.625365 128.389 0.616865C128.04 0.611295 127.683 0.604606 127.333 0.60238C126.922 0.600098 126.505 0.600098 126.093 0.600098V0.600246Z" fill="#B1B8C7"/>
<path d="M9.82388 45.1114C9.47585 45.1114 9.13633 45.1071 8.79102 45.0993C8.07577 45.0901 7.3622 45.0283 6.65614 44.9144C5.99778 44.8019 5.36 44.5925 4.76385 44.2932C4.17317 43.9963 3.63441 43.6071 3.16823 43.1405C2.6953 42.6793 2.30157 42.1445 2.00263 41.557C1.7004 40.9659 1.49123 40.3321 1.38243 39.678C1.26492 38.9751 1.20135 38.2645 1.19225 37.552C1.18502 37.3129 1.17554 36.5167 1.17554 36.5167V10.3238C1.17554 10.3238 1.18563 9.53983 1.19232 9.30952C1.20103 8.59823 1.26423 7.88862 1.38138 7.18685C1.49038 6.53093 1.69971 5.8954 2.00211 5.30226C2.29995 4.71527 2.69149 4.17999 3.16157 3.71717C3.63112 3.24996 4.1716 2.85876 4.76329 2.55783C5.35807 2.25949 5.99464 2.05159 6.65167 1.94108C7.36004 1.82607 8.0761 1.76389 8.79383 1.75506L9.82441 1.74121H127.204L128.247 1.75562C128.959 1.764 129.668 1.82563 130.369 1.93997C131.033 2.05187 131.677 2.26122 132.278 2.56115C133.463 3.1676 134.428 4.12705 135.037 5.30503C135.334 5.89408 135.54 6.52443 135.648 7.17467C135.766 7.88221 135.832 8.59739 135.846 9.31451C135.85 9.63562 135.85 9.98058 135.85 10.3238C135.859 10.749 135.859 11.1537 135.859 11.5617V35.292C135.859 35.7039 135.859 36.1059 135.85 36.5111C135.85 36.8799 135.85 37.2176 135.845 37.5652C135.831 38.2696 135.766 38.972 135.65 39.6669C135.543 40.3257 135.335 40.9644 135.033 41.5604C134.732 42.1415 134.341 42.6717 133.873 43.1316C133.406 43.6008 132.866 43.9923 132.275 44.291C131.675 44.5926 131.032 44.8027 130.369 44.9144C129.664 45.0289 128.95 45.0907 128.235 45.0993C127.901 45.1071 127.55 45.1114 127.21 45.1114L125.972 45.1137L9.82388 45.1114Z" fill="#090A0A"/>
<path d="M28.5585 24.2258C28.571 23.2633 28.8273 22.3196 29.3038 21.4825C29.7802 20.6454 30.4613 19.9421 31.2836 19.4379C30.7612 18.694 30.0721 18.0818 29.2709 17.6498C28.4697 17.2179 27.5787 16.9782 26.6684 16.9499C24.7265 16.7466 22.844 18.1086 21.8545 18.1086C20.8458 18.1086 19.3223 16.9701 17.6818 17.0037C16.6206 17.0379 15.5864 17.3456 14.68 17.8969C13.7736 18.4482 13.0258 19.2241 12.5095 20.1493C10.2731 24.0105 11.9412 29.685 14.0835 32.806C15.1553 34.3344 16.408 36.0415 18.0471 35.9809C19.6511 35.9146 20.2501 34.9611 22.1862 34.9611C24.1043 34.9611 24.6663 35.9809 26.3387 35.9425C28.0598 35.9146 29.1442 34.4074 30.1784 32.8646C30.9485 31.7756 31.5411 30.5721 31.9343 29.2986C30.9343 28.8769 30.081 28.1709 29.4807 27.2689C28.8805 26.3667 28.5597 25.3084 28.5585 24.2258Z" fill="#F8F9FB"/>
<path d="M25.3997 14.8977C26.3381 13.7743 26.8004 12.3304 26.6885 10.8726C25.2548 11.0227 23.9305 11.706 22.9793 12.7863C22.5144 13.3141 22.1582 13.928 21.9312 14.5931C21.7043 15.2582 21.6111 15.9614 21.6568 16.6623C22.3739 16.6697 23.0834 16.5148 23.7317 16.209C24.38 15.9034 24.9503 15.455 25.3997 14.8977Z" fill="#F8F9FB"/>
<path d="M48.4526 31.5775H43.0348L41.7338 35.4085H39.439L44.5706 21.2349H46.9548L52.0864 35.4085H49.7526L48.4526 31.5775ZM43.596 29.8097H47.8904L45.7734 23.5923H45.7141L43.596 29.8097Z" fill="#F8F9FB"/>
<path d="M63.1692 30.2413C63.1692 33.4526 61.4456 35.5157 58.8446 35.5157C58.1856 35.5501 57.5304 35.3988 56.9537 35.079C56.3772 34.7593 55.9024 34.284 55.5841 33.7078H55.5348V38.8262H53.4077V25.0739H55.4667V26.7926H55.5058C55.8389 26.2191 56.3215 25.7464 56.9025 25.4247C57.4836 25.103 58.1412 24.9444 58.8054 24.9658C61.4355 24.9658 63.1692 27.039 63.1692 30.2413ZM60.9828 30.2413C60.9828 28.1492 59.8986 26.7737 58.2443 26.7737C56.6191 26.7737 55.5259 28.1782 55.5259 30.2413C55.5259 32.3235 56.6191 33.7178 58.2443 33.7178C59.8986 33.7178 60.9828 32.3525 60.9828 30.2413Z" fill="#F8F9FB"/>
<path d="M74.5749 30.2413C74.5749 33.4526 72.8513 35.5157 70.2503 35.5157C69.5914 35.5501 68.9362 35.3987 68.3595 35.079C67.7828 34.7593 67.3082 34.284 66.9898 33.7078H66.9406V38.8262H64.8135V25.0739H66.8724V26.7926H66.9115C67.2445 26.2191 67.7272 25.7464 68.3083 25.4247C68.8893 25.103 69.5469 24.9444 70.2112 24.9658C72.8413 24.9658 74.5749 27.039 74.5749 30.2413ZM72.3886 30.2413C72.3886 28.1492 71.3043 26.7736 69.65 26.7736C68.0248 26.7736 66.9316 28.1782 66.9316 30.2413C66.9316 32.3234 68.0248 33.7178 69.65 33.7178C71.3043 33.7178 72.3886 32.3525 72.3886 30.2413Z" fill="#F8F9FB"/>
<path d="M82.1132 31.4589C82.2708 32.8645 83.6401 33.7873 85.5112 33.7873C87.3041 33.7873 88.594 32.8645 88.594 31.5971C88.594 30.497 87.816 29.8382 85.974 29.3868L84.1319 28.9443C81.522 28.3156 80.3103 27.0985 80.3103 25.1234C80.3103 22.6778 82.4474 20.998 85.4821 20.998C88.4852 20.998 90.5441 22.6778 90.6134 25.1234H88.4667C88.3377 23.7088 87.1655 22.8551 85.4519 22.8551C83.7384 22.8551 82.5659 23.7189 82.5659 24.9762C82.5659 25.9782 83.3148 26.5679 85.1468 27.0193L86.7128 27.4027C89.6292 28.0904 90.8408 29.2586 90.8408 31.3318C90.8408 33.9835 88.7222 35.6443 85.3536 35.6443C82.2015 35.6443 80.0733 34.0225 79.9358 31.4588L82.1132 31.4589Z" fill="#F8F9FB"/>
<path d="M95.4308 22.6284V25.074H97.4018V26.7537H95.4308V32.4506C95.4308 33.3356 95.8258 33.748 96.6915 33.748C96.926 33.744 97.1595 33.7276 97.3913 33.6989V35.3686C97.0023 35.4412 96.6064 35.4741 96.2104 35.4668C94.112 35.4668 93.2937 34.6809 93.2937 32.6768V26.7537H91.7871V25.074H93.2937V22.6284H95.4308Z" fill="#F8F9FB"/>
<path d="M98.5432 30.2412C98.5432 26.9899 100.463 24.9468 103.457 24.9468C106.462 24.9468 108.373 26.9899 108.373 30.2412C108.373 33.5015 106.472 35.5357 103.457 35.5357C100.444 35.5357 98.5432 33.5015 98.5432 30.2412ZM106.206 30.2412C106.206 28.0109 105.182 26.6945 103.457 26.6945C101.734 26.6945 100.71 28.0209 100.71 30.2412C100.71 32.4805 101.734 33.7869 103.457 33.7869C105.182 33.7869 106.206 32.4805 106.206 30.2412Z" fill="#F8F9FB"/>
<path d="M110.128 25.0738H112.157V26.8327H112.206C112.343 26.2833 112.666 25.7979 113.12 25.4579C113.574 25.1179 114.131 24.9441 114.698 24.9657C114.943 24.9649 115.188 24.9914 115.427 25.0449V27.0289C115.118 26.9346 114.795 26.8913 114.471 26.9007C114.162 26.8882 113.855 26.9425 113.569 27.06C113.282 27.1774 113.025 27.3552 112.815 27.581C112.604 27.8069 112.446 28.0755 112.348 28.3685C112.252 28.6615 112.22 28.9718 112.255 29.2782V35.4076H110.128V25.0738Z" fill="#F8F9FB"/>
<path d="M125.234 32.3724C124.948 34.2483 123.115 35.5357 120.772 35.5357C117.757 35.5357 115.886 33.5216 115.886 30.2903C115.886 27.0489 117.768 24.9468 120.682 24.9468C123.549 24.9468 125.352 26.9107 125.352 30.0439V30.7707H118.034V30.8989C117.999 31.2792 118.048 31.6623 118.173 32.0228C118.3 32.3833 118.501 32.7129 118.765 32.9897C119.028 33.2666 119.348 33.4843 119.703 33.6285C120.057 33.7726 120.438 33.8399 120.821 33.8259C121.323 33.8728 121.828 33.7568 122.259 33.4949C122.69 33.233 123.025 32.8393 123.214 32.3724H125.234ZM118.043 29.2882H123.224C123.244 28.9463 123.191 28.6041 123.071 28.2831C122.952 27.9621 122.767 27.6693 122.528 27.423C122.289 27.1768 122.002 26.9824 121.684 26.852C121.367 26.7216 121.026 26.6581 120.682 26.6655C120.336 26.6634 119.992 26.7298 119.672 26.8608C119.351 26.9918 119.06 27.1847 118.815 27.4286C118.569 27.6724 118.375 27.9623 118.243 28.2815C118.11 28.6006 118.042 28.9428 118.043 29.2882Z" fill="#F8F9FB"/>
<path d="M43.3297 10.5648C43.7756 10.533 44.2231 10.6001 44.6399 10.7616C45.0567 10.923 45.4323 11.1746 45.7397 11.4984C46.0471 11.8221 46.2787 12.2098 46.4176 12.6336C46.5565 13.0574 46.5995 13.5065 46.5433 13.9489C46.5433 16.1246 45.3641 17.3753 43.3297 17.3753H40.8628V10.5648H43.3297ZM41.9236 16.4121H43.2112C43.5299 16.4312 43.8487 16.379 44.1447 16.2596C44.4406 16.1402 44.7061 15.9566 44.9218 15.7219C45.1376 15.4873 45.2981 15.2076 45.3919 14.9033C45.4856 14.599 45.51 14.2777 45.4634 13.9627C45.5066 13.649 45.4797 13.3297 45.3845 13.0277C45.2894 12.7256 45.1285 12.4482 44.9132 12.2155C44.6979 11.9827 44.4337 11.8003 44.1394 11.6813C43.8452 11.5623 43.5282 11.5097 43.2112 11.5273H41.9236V16.4121Z" fill="#F8F9FB"/>
<path d="M47.7415 14.8029C47.7091 14.4652 47.7479 14.1244 47.8553 13.8025C47.9626 13.4805 48.1364 13.1845 48.3652 12.9334C48.5941 12.6823 48.873 12.4817 49.1842 12.3445C49.4953 12.2072 49.8318 12.1362 50.1721 12.1362C50.5123 12.1362 50.8488 12.2072 51.16 12.3445C51.4712 12.4817 51.7501 12.6823 51.9789 12.9334C52.2078 13.1845 52.3815 13.4805 52.4889 13.8025C52.5963 14.1244 52.635 14.4652 52.6026 14.8029C52.6356 15.1411 52.5974 15.4823 52.4902 15.8048C52.3831 16.1273 52.2095 16.4238 51.9807 16.6754C51.7517 16.927 51.4726 17.128 51.1611 17.2656C50.8496 17.4032 50.5128 17.4742 50.1721 17.4742C49.8314 17.4742 49.4946 17.4032 49.183 17.2656C48.8716 17.128 48.5924 16.927 48.3635 16.6754C48.1346 16.4238 47.9611 16.1273 47.8539 15.8048C47.7467 15.4823 47.7085 15.1411 47.7415 14.8029ZM51.5564 14.8029C51.5564 13.6889 51.0546 13.0374 50.1738 13.0374C49.2896 13.0374 48.7923 13.6889 48.7923 14.803C48.7923 15.926 49.2896 16.5724 50.1738 16.5724C51.0546 16.5724 51.5564 15.9215 51.5564 14.8029Z" fill="#F8F9FB"/>
<path d="M59.0641 17.3759H58.009L56.9437 13.5906H56.8633L55.8025 17.3759H54.7573L53.3367 12.2363H54.3684L55.2917 16.1581H55.3677L56.4274 12.2363H57.4032L58.4628 16.1581H58.5432L59.462 12.2363H60.4792L59.0641 17.3759Z" fill="#F8F9FB"/>
<path d="M61.6741 12.2355H62.6532V13.0521H62.7292C62.8581 12.7588 63.0756 12.513 63.3514 12.3488C63.6271 12.1847 63.9472 12.1104 64.2673 12.1364C64.518 12.1175 64.7699 12.1553 65.004 12.2467C65.2382 12.3381 65.4487 12.4809 65.6201 12.6645C65.7914 12.8481 65.9191 13.0678 65.9938 13.3072C66.0684 13.5467 66.088 13.7999 66.0512 14.048V17.3751H65.034V14.3027C65.034 13.4768 64.6742 13.066 63.9219 13.066C63.7516 13.058 63.5817 13.087 63.4236 13.1507C63.2656 13.2144 63.1233 13.3114 63.0064 13.4351C62.8895 13.5588 62.8008 13.7063 62.7464 13.8675C62.692 14.0285 62.6731 14.1994 62.6912 14.3684V17.3752H61.6741V12.2355Z" fill="#F8F9FB"/>
<path d="M67.6721 10.2295H68.6893V17.3753H67.6721V10.2295Z" fill="#F8F9FB"/>
<path d="M70.1032 14.803C70.0709 14.4653 70.1097 14.1245 70.2171 13.8026C70.3246 13.4806 70.4982 13.1845 70.7271 12.9334C70.956 12.6823 71.235 12.4817 71.5461 12.3445C71.8574 12.2072 72.1938 12.1362 72.5341 12.1362C72.8744 12.1362 73.2109 12.2072 73.5221 12.3445C73.8333 12.4817 74.1122 12.6823 74.3411 12.9334C74.57 13.1845 74.7438 13.4806 74.8511 13.8026C74.9586 14.1245 74.9973 14.4653 74.965 14.803C74.9979 15.1412 74.9596 15.4824 74.8524 15.8049C74.7453 16.1274 74.5717 16.424 74.3428 16.6755C74.1138 16.927 73.8347 17.1281 73.5232 17.2657C73.2117 17.4033 72.8748 17.4743 72.5341 17.4743C72.1935 17.4743 71.8566 17.4033 71.5451 17.2657C71.2336 17.1281 70.9544 16.927 70.7255 16.6755C70.4966 16.424 70.3229 16.1274 70.2158 15.8049C70.1086 15.4824 70.0703 15.1412 70.1032 14.803ZM73.9182 14.803C73.9182 13.689 73.4163 13.0375 72.5355 13.0375C71.6514 13.0375 71.154 13.689 71.154 14.8031C71.154 15.9261 71.6514 16.5725 72.5355 16.5725C73.4163 16.5725 73.9182 15.9216 73.9182 14.803Z" fill="#F8F9FB"/>
<path d="M76.0359 15.9216C76.0359 14.9964 76.7266 14.4631 77.9528 14.3873L79.3489 14.3071V13.8634C79.3489 13.3205 78.989 13.014 78.2937 13.014C77.7259 13.014 77.3325 13.2219 77.2196 13.5853H76.2348C76.3388 12.7025 77.1715 12.1362 78.3407 12.1362C79.6328 12.1362 80.3616 12.7777 80.3616 13.8634V17.375H79.3824V16.6528H79.3019C79.1386 16.9119 78.9092 17.123 78.6373 17.2648C78.3653 17.4066 78.0604 17.4739 77.7538 17.4597C77.5375 17.4821 77.3188 17.4591 77.1119 17.3921C76.905 17.3251 76.7145 17.2156 76.5526 17.0708C76.3908 16.9258 76.2612 16.7486 76.1722 16.5507C76.0831 16.3528 76.0367 16.1384 76.0359 15.9216ZM79.3489 15.4824V15.0527L78.0903 15.133C77.3805 15.1803 77.0586 15.421 77.0586 15.8742C77.0586 16.3368 77.461 16.6059 78.0143 16.6059C78.1764 16.6223 78.3403 16.606 78.4959 16.5579C78.6516 16.5099 78.7959 16.4311 78.9204 16.3262C79.045 16.2215 79.147 16.0927 79.2207 15.9477C79.2943 15.8028 79.3379 15.6445 79.3489 15.4824Z" fill="#F8F9FB"/>
<path d="M81.6982 14.8034C81.6982 13.1793 82.5354 12.1505 83.8376 12.1505C84.1597 12.1358 84.4793 12.2127 84.7593 12.3724C85.0392 12.532 85.2677 12.7678 85.4181 13.0522H85.4941V10.2295H86.5113V17.3753H85.5366V16.5634H85.4561C85.294 16.8458 85.0576 17.0787 84.7722 17.2368C84.487 17.3948 84.1637 17.4721 83.8376 17.4601C82.5264 17.4601 81.6982 16.4313 81.6982 14.8034ZM82.7489 14.8034C82.7489 15.8935 83.2642 16.5494 84.126 16.5494C84.9833 16.5494 85.5132 15.884 85.5132 14.8078C85.5132 13.7367 84.9778 13.0618 84.126 13.0618C83.2697 13.0618 82.7489 13.7222 82.7489 14.8034Z" fill="#F8F9FB"/>
<path d="M90.7195 14.8029C90.687 14.4652 90.7257 14.1244 90.8337 13.8025C90.9408 13.4805 91.1146 13.1845 91.3438 12.9334C91.5721 12.6823 91.8513 12.4817 92.1621 12.3445C92.4737 12.2072 92.81 12.1362 93.1498 12.1362C93.4905 12.1362 93.8267 12.2072 94.1384 12.3445C94.4492 12.4817 94.7284 12.6823 94.9567 12.9334C95.1858 13.1845 95.3597 13.4805 95.4668 13.8025C95.5748 14.1244 95.6134 14.4652 95.5809 14.8029C95.6134 15.1411 95.5757 15.4823 95.4686 15.8048C95.3614 16.1273 95.1876 16.4238 94.9584 16.6754C94.7302 16.927 94.451 17.128 94.1393 17.2656C93.8276 17.4032 93.4905 17.4742 93.1498 17.4742C92.8091 17.4742 92.4729 17.4032 92.1612 17.2656C91.8495 17.128 91.5703 16.927 91.342 16.6754C91.1129 16.4238 90.939 16.1273 90.8319 15.8048C90.7248 15.4823 90.687 15.1411 90.7195 14.8029ZM94.5344 14.8029C94.5344 13.6889 94.033 13.0374 93.1516 13.0374C92.2674 13.0374 91.7705 13.6889 91.7705 14.803C91.7705 15.926 92.2674 16.5724 93.1516 16.5724C94.033 16.5724 94.5344 15.9215 94.5344 14.8029Z" fill="#F8F9FB"/>
<path d="M96.9453 12.2355H97.9251V13.0521H98.0007C98.1297 12.7588 98.3475 12.513 98.6231 12.3488C98.8988 12.1847 99.2184 12.1104 99.5389 12.1364C99.7891 12.1175 100.041 12.1553 100.276 12.2467C100.51 12.3381 100.721 12.4809 100.892 12.6645C101.063 12.8481 101.19 13.0678 101.265 13.3072C101.34 13.5467 101.36 13.7999 101.323 14.048V17.3751H100.305V14.3027C100.305 13.4768 99.9454 13.066 99.193 13.066C99.0235 13.058 98.8532 13.087 98.6951 13.1507C98.5371 13.2144 98.3949 13.3114 98.2781 13.4351C98.1613 13.5588 98.0726 13.7063 98.0182 13.8675C97.9638 14.0285 97.9445 14.1994 97.9629 14.3684V17.3752H96.9453V12.2355Z" fill="#F8F9FB"/>
<path d="M107.07 10.957V12.26H108.187V13.1144H107.07V15.7572C107.07 16.2955 107.293 16.5313 107.799 16.5313C107.929 16.5309 108.058 16.523 108.187 16.5079V17.3528C108.005 17.3854 107.819 17.4027 107.634 17.4046C106.502 17.4046 106.052 17.0078 106.052 16.0169V13.1143H105.234V12.26H106.052V10.957H107.07Z" fill="#F8F9FB"/>
<path d="M109.576 10.2295H110.585V13.0618H110.665C110.8 12.7657 111.024 12.5186 111.305 12.3538C111.586 12.1891 111.912 12.1148 112.236 12.141C112.486 12.1275 112.735 12.1691 112.967 12.2627C113.199 12.3563 113.407 12.4998 113.576 12.6828C113.746 12.8658 113.873 13.0838 113.948 13.3214C114.023 13.559 114.045 13.8102 114.012 14.0571V17.3753H112.993V14.3073C112.993 13.4864 112.61 13.0707 111.891 13.0707C111.717 13.0563 111.541 13.0803 111.376 13.1409C111.212 13.2014 111.063 13.2971 110.939 13.4212C110.815 13.5453 110.72 13.6949 110.66 13.8594C110.601 14.0239 110.578 14.1994 110.594 14.3737V17.3753H109.576V10.2295Z" fill="#F8F9FB"/>
<path d="M119.943 15.9874C119.805 16.4571 119.505 16.8635 119.097 17.1352C118.689 17.407 118.197 17.5271 117.709 17.4743C117.37 17.4833 117.032 17.4184 116.72 17.2842C116.409 17.1501 116.129 16.9499 115.903 16.6975C115.676 16.4451 115.508 16.1465 115.409 15.8226C115.309 15.4987 115.282 15.157 115.329 14.8215C115.283 14.4849 115.311 14.1426 115.41 13.8177C115.509 13.4927 115.677 13.1928 115.902 12.9382C116.128 12.6836 116.405 12.4802 116.716 12.3419C117.028 12.2036 117.365 12.1334 117.705 12.1363C119.139 12.1363 120.004 13.1133 120.004 14.7273V15.0813H116.365V15.1381C116.349 15.3267 116.373 15.5166 116.434 15.6954C116.496 15.8743 116.595 16.0384 116.725 16.177C116.854 16.3156 117.011 16.4258 117.185 16.5004C117.359 16.5751 117.547 16.6126 117.737 16.6104C117.98 16.6396 118.227 16.5959 118.446 16.4849C118.664 16.374 118.844 16.2008 118.964 15.9873L119.943 15.9874ZM116.365 14.3311H118.968C118.981 14.1586 118.957 13.9853 118.899 13.8224C118.841 13.6595 118.748 13.5106 118.629 13.3852C118.51 13.2598 118.366 13.1608 118.205 13.0944C118.045 13.0279 117.872 12.9957 117.699 12.9996C117.524 12.9974 117.349 13.0304 117.186 13.0965C117.023 13.1627 116.875 13.2607 116.75 13.3847C116.626 13.5088 116.528 13.6565 116.461 13.819C116.395 13.9815 116.362 14.1556 116.365 14.3311Z" fill="#F8F9FB"/>
</svg>
