<svg width="305" height="96" viewBox="0 0 305 96" fill="none" xmlns="http://www.w3.org/2000/svg">
<g filter="url(#filter0_d_564_3610)">
<rect x="12" y="6" width="281" height="72" rx="8" fill="white"/>
<path d="M33.5672 47.5V37.3182H37.5843C38.3532 37.3182 39.0095 37.4557 39.553 37.7308C40.0999 38.0026 40.5159 38.3887 40.8009 38.8892C41.0893 39.3864 41.2334 39.9714 41.2334 40.6442C41.2334 41.3203 41.0876 41.902 40.7959 42.3892C40.5043 42.8731 40.0817 43.2443 39.5282 43.5028C38.978 43.7614 38.3118 43.8906 37.5296 43.8906H34.84V42.1605H37.1816C37.5926 42.1605 37.934 42.1042 38.2057 41.9915C38.4775 41.8788 38.6797 41.7098 38.8123 41.4844C38.9482 41.259 39.0161 40.9789 39.0161 40.6442C39.0161 40.3061 38.9482 40.0211 38.8123 39.7891C38.6797 39.5571 38.4759 39.3814 38.2008 39.2621C37.929 39.1394 37.586 39.0781 37.1717 39.0781H35.7199V47.5H33.5672ZM39.0658 42.8665L41.5964 47.5H39.2199L36.7441 42.8665H39.0658ZM46.002 47.6491C45.2165 47.6491 44.5404 47.4901 43.9736 47.1719C43.4102 46.8504 42.976 46.3963 42.6711 45.8097C42.3662 45.2197 42.2137 44.522 42.2137 43.7166C42.2137 42.9311 42.3662 42.2417 42.6711 41.6484C42.976 41.0552 43.4052 40.5928 43.9587 40.2614C44.5155 39.9299 45.1685 39.7642 45.9175 39.7642C46.4213 39.7642 46.8903 39.8454 47.3245 40.0078C47.762 40.1669 48.1431 40.4072 48.468 40.7287C48.7961 41.0502 49.0513 41.4545 49.2336 41.9418C49.4159 42.4257 49.507 42.9924 49.507 43.642V44.2237H43.0589V42.9112H47.5134C47.5134 42.6063 47.4471 42.3362 47.3145 42.1009C47.182 41.8655 46.998 41.6816 46.7627 41.549C46.5307 41.4131 46.2606 41.3452 45.9523 41.3452C45.6308 41.3452 45.3458 41.4197 45.0972 41.5689C44.8519 41.7147 44.6597 41.9119 44.5205 42.1605C44.3813 42.4058 44.31 42.6792 44.3067 42.9808V44.2287C44.3067 44.6065 44.3763 44.933 44.5155 45.2081C44.6581 45.4832 44.8586 45.6953 45.1171 45.8445C45.3756 45.9936 45.6822 46.0682 46.0368 46.0682C46.2722 46.0682 46.4876 46.035 46.6831 45.9688C46.8787 45.9025 47.0461 45.803 47.1853 45.6705C47.3245 45.5379 47.4305 45.3755 47.5035 45.1832L49.4623 45.3125C49.3628 45.7831 49.159 46.1941 48.8508 46.5455C48.5458 46.8935 48.1514 47.1652 47.6675 47.3608C47.1869 47.553 46.6318 47.6491 46.002 47.6491ZM52.9967 47.6442C52.5095 47.6442 52.0753 47.5597 51.6941 47.3906C51.313 47.2183 51.0114 46.9647 50.7893 46.63C50.5705 46.2919 50.4612 45.871 50.4612 45.3672C50.4612 44.9429 50.539 44.5866 50.6948 44.2983C50.8506 44.0099 51.0627 43.7779 51.3312 43.6023C51.5997 43.4266 51.9046 43.294 52.246 43.2045C52.5907 43.1151 52.9519 43.0521 53.3298 43.0156C53.7739 42.9692 54.1319 42.9261 54.4036 42.8864C54.6754 42.8433 54.8726 42.7803 54.9953 42.6974C55.1179 42.6146 55.1792 42.492 55.1792 42.3295V42.2997C55.1792 41.9848 55.0798 41.7412 54.8809 41.5689C54.6854 41.3965 54.4069 41.3104 54.0457 41.3104C53.6645 41.3104 53.3613 41.3949 53.1359 41.5639C52.9105 41.7296 52.7614 41.9384 52.6884 42.1903L50.7296 42.0312C50.8291 41.5672 51.0246 41.1662 51.3163 40.8281C51.6079 40.4867 51.9841 40.2249 52.4448 40.0426C52.9088 39.857 53.4458 39.7642 54.0556 39.7642C54.4799 39.7642 54.8859 39.8139 55.2737 39.9134C55.6648 40.0128 56.0111 40.1669 56.3127 40.3757C56.6176 40.5845 56.8579 40.853 57.0336 41.1811C57.2093 41.5059 57.2971 41.8954 57.2971 42.3494V47.5H55.2886V46.4411H55.2289C55.1063 46.6797 54.9422 46.8902 54.7367 47.0724C54.5312 47.2514 54.2843 47.3923 53.996 47.495C53.7076 47.5945 53.3745 47.6442 52.9967 47.6442ZM53.6032 46.1825C53.9148 46.1825 54.1899 46.1212 54.4285 45.9986C54.6671 45.8726 54.8544 45.7036 54.9903 45.4915C55.1262 45.2794 55.1941 45.0391 55.1941 44.7706V43.9602C55.1278 44.0033 55.0367 44.0431 54.9207 44.0795C54.808 44.1127 54.6804 44.1442 54.5379 44.174C54.3953 44.2005 54.2528 44.2254 54.1103 44.2486C53.9678 44.2685 53.8385 44.2867 53.7225 44.3033C53.4739 44.3397 53.2569 44.3977 53.0712 44.4773C52.8856 44.5568 52.7415 44.6645 52.6387 44.8004C52.536 44.933 52.4846 45.0987 52.4846 45.2976C52.4846 45.5859 52.589 45.8063 52.7978 45.9588C53.0099 46.108 53.2784 46.1825 53.6032 46.1825ZM60.9881 37.3182V47.5H58.8702V37.3182H60.9881ZM67.3725 42.4787V44.1591H62.729V42.4787H67.3725ZM73.169 39.8636V41.4545H68.5702V39.8636H73.169ZM69.6143 38.0341H71.7322V45.1534C71.7322 45.349 71.762 45.5014 71.8217 45.6108C71.8813 45.7169 71.9642 45.7914 72.0702 45.8345C72.1796 45.8776 72.3056 45.8991 72.4481 45.8991C72.5475 45.8991 72.6469 45.8909 72.7464 45.8743C72.8458 45.8544 72.922 45.8395 72.9751 45.8295L73.3082 47.4055C73.2021 47.4387 73.053 47.4768 72.8607 47.5199C72.6685 47.5663 72.4348 47.5945 72.1597 47.6044C71.6493 47.6243 71.2019 47.5563 70.8174 47.4006C70.4362 47.2448 70.1396 47.0028 69.9275 46.6747C69.7154 46.3466 69.611 45.9323 69.6143 45.4318V38.0341ZM74.4786 47.5V39.8636H76.5965V47.5H74.4786ZM75.5425 38.8793C75.2276 38.8793 74.9575 38.7749 74.7321 38.5661C74.5101 38.3539 74.399 38.1004 74.399 37.8054C74.399 37.5137 74.5101 37.2635 74.7321 37.0547C74.9575 36.8426 75.2276 36.7365 75.5425 36.7365C75.8574 36.7365 76.1258 36.8426 76.3479 37.0547C76.5733 37.2635 76.686 37.5137 76.686 37.8054C76.686 38.1004 76.5733 38.3539 76.3479 38.5661C76.1258 38.7749 75.8574 38.8793 75.5425 38.8793ZM78.223 47.5V39.8636H80.2415V41.2109H80.331C80.4901 40.7635 80.7552 40.4105 81.1264 40.152C81.4976 39.8935 81.9418 39.7642 82.4588 39.7642C82.9825 39.7642 83.4283 39.8951 83.7962 40.157C84.1641 40.4155 84.4093 40.7668 84.532 41.2109H84.6115C84.7673 40.7734 85.049 40.4238 85.4567 40.1619C85.8677 39.8968 86.3532 39.7642 86.9134 39.7642C87.626 39.7642 88.2043 39.9912 88.6484 40.4453C89.0959 40.8961 89.3196 41.5357 89.3196 42.3643V47.5H87.2067V42.782C87.2067 42.3577 87.094 42.0395 86.8686 41.8274C86.6432 41.6153 86.3615 41.5092 86.0234 41.5092C85.639 41.5092 85.339 41.6319 85.1236 41.8771C84.9082 42.1191 84.8004 42.4389 84.8004 42.8366V47.5H82.7472V42.7372C82.7472 42.3627 82.6395 42.0644 82.424 41.8423C82.2119 41.6203 81.9318 41.5092 81.5838 41.5092C81.3485 41.5092 81.1364 41.5689 80.9475 41.6882C80.7618 41.8042 80.6144 41.9683 80.505 42.1804C80.3956 42.3892 80.3409 42.6345 80.3409 42.9162V47.5H78.223ZM94.4027 47.6491C93.6172 47.6491 92.941 47.4901 92.3743 47.1719C91.8108 46.8504 91.3766 46.3963 91.0717 45.8097C90.7668 45.2197 90.6143 44.522 90.6143 43.7166C90.6143 42.9311 90.7668 42.2417 91.0717 41.6484C91.3766 41.0552 91.8058 40.5928 92.3593 40.2614C92.9162 39.9299 93.5691 39.7642 94.3181 39.7642C94.8219 39.7642 95.2909 39.8454 95.7251 40.0078C96.1626 40.1669 96.5438 40.4072 96.8686 40.7287C97.1967 41.0502 97.4519 41.4545 97.6342 41.9418C97.8165 42.4257 97.9076 42.9924 97.9076 43.642V44.2237H91.4595V42.9112H95.914C95.914 42.6063 95.8477 42.3362 95.7152 42.1009C95.5826 41.8655 95.3986 41.6816 95.1633 41.549C94.9313 41.4131 94.6612 41.3452 94.3529 41.3452C94.0315 41.3452 93.7464 41.4197 93.4978 41.5689C93.2526 41.7147 93.0603 41.9119 92.9211 42.1605C92.7819 42.4058 92.7107 42.6792 92.7074 42.9808V44.2287C92.7074 44.6065 92.777 44.933 92.9162 45.2081C93.0587 45.4832 93.2592 45.6953 93.5177 45.8445C93.7762 45.9936 94.0828 46.0682 94.4375 46.0682C94.6728 46.0682 94.8882 46.035 95.0838 45.9688C95.2793 45.9025 95.4467 45.803 95.5859 45.6705C95.7251 45.5379 95.8312 45.3755 95.9041 45.1832L97.8629 45.3125C97.7635 45.7831 97.5596 46.1941 97.2514 46.5455C96.9465 46.8935 96.552 47.1652 96.0681 47.3608C95.5876 47.553 95.0324 47.6491 94.4027 47.6491Z" fill="#A93691"/>
<path d="M106.497 39.8636V41.4545H101.783V39.8636H106.497ZM102.862 47.5V39.3118C102.862 38.7583 102.97 38.2992 103.185 37.9347C103.404 37.5701 103.702 37.2966 104.08 37.1143C104.458 36.9321 104.887 36.8409 105.368 36.8409C105.693 36.8409 105.989 36.8658 106.258 36.9155C106.53 36.9652 106.732 37.0099 106.864 37.0497L106.487 38.6406C106.404 38.6141 106.301 38.5893 106.178 38.5661C106.059 38.5429 105.936 38.5312 105.81 38.5312C105.499 38.5312 105.282 38.6042 105.159 38.75C105.037 38.8925 104.975 39.093 104.975 39.3516V47.5H102.862ZM107.72 47.5V39.8636H109.838V47.5H107.72ZM108.784 38.8793C108.469 38.8793 108.199 38.7749 107.974 38.5661C107.752 38.3539 107.641 38.1004 107.641 37.8054C107.641 37.5137 107.752 37.2635 107.974 37.0547C108.199 36.8426 108.469 36.7365 108.784 36.7365C109.099 36.7365 109.368 36.8426 109.59 37.0547C109.815 37.2635 109.928 37.5137 109.928 37.8054C109.928 38.1004 109.815 38.3539 109.59 38.5661C109.368 38.7749 109.099 38.8793 108.784 38.8793ZM113.583 43.0852V47.5H111.465V39.8636H113.483V41.2109H113.573C113.742 40.7668 114.025 40.4155 114.423 40.157C114.821 39.8951 115.303 39.7642 115.87 39.7642C116.4 39.7642 116.862 39.8802 117.257 40.1122C117.651 40.3442 117.958 40.6757 118.176 41.1065C118.395 41.5341 118.505 42.0445 118.505 42.6378V47.5H116.387V43.0156C116.39 42.5483 116.271 42.1837 116.029 41.9219C115.787 41.6567 115.454 41.5241 115.029 41.5241C114.744 41.5241 114.493 41.5855 114.274 41.7081C114.058 41.8307 113.889 42.0097 113.767 42.245C113.647 42.477 113.586 42.7571 113.583 43.0852ZM122.281 47.6442C121.794 47.6442 121.36 47.5597 120.979 47.3906C120.598 47.2183 120.296 46.9647 120.074 46.63C119.855 46.2919 119.746 45.871 119.746 45.3672C119.746 44.9429 119.824 44.5866 119.98 44.2983C120.135 44.0099 120.347 43.7779 120.616 43.6023C120.884 43.4266 121.189 43.294 121.531 43.2045C121.875 43.1151 122.237 43.0521 122.614 43.0156C123.059 42.9692 123.417 42.9261 123.688 42.8864C123.96 42.8433 124.157 42.7803 124.28 42.6974C124.403 42.6146 124.464 42.492 124.464 42.3295V42.2997C124.464 41.9848 124.364 41.7412 124.166 41.5689C123.97 41.3965 123.692 41.3104 123.33 41.3104C122.949 41.3104 122.646 41.3949 122.421 41.5639C122.195 41.7296 122.046 41.9384 121.973 42.1903L120.014 42.0312C120.114 41.5672 120.309 41.1662 120.601 40.8281C120.893 40.4867 121.269 40.2249 121.73 40.0426C122.194 39.857 122.73 39.7642 123.34 39.7642C123.765 39.7642 124.171 39.8139 124.558 39.9134C124.949 40.0128 125.296 40.1669 125.597 40.3757C125.902 40.5845 126.143 40.853 126.318 41.1811C126.494 41.5059 126.582 41.8954 126.582 42.3494V47.5H124.573V46.4411H124.514C124.391 46.6797 124.227 46.8902 124.021 47.0724C123.816 47.2514 123.569 47.3923 123.281 47.495C122.992 47.5945 122.659 47.6442 122.281 47.6442ZM122.888 46.1825C123.199 46.1825 123.475 46.1212 123.713 45.9986C123.952 45.8726 124.139 45.7036 124.275 45.4915C124.411 45.2794 124.479 45.0391 124.479 44.7706V43.9602C124.413 44.0033 124.321 44.0431 124.205 44.0795C124.093 44.1127 123.965 44.1442 123.823 44.174C123.68 44.2005 123.538 44.2254 123.395 44.2486C123.252 44.2685 123.123 44.2867 123.007 44.3033C122.759 44.3397 122.542 44.3977 122.356 44.4773C122.17 44.5568 122.026 44.6645 121.923 44.8004C121.821 44.933 121.769 45.0987 121.769 45.2976C121.769 45.5859 121.874 45.8063 122.082 45.9588C122.295 46.108 122.563 46.1825 122.888 46.1825ZM130.273 43.0852V47.5H128.155V39.8636H130.173V41.2109H130.263C130.432 40.7668 130.715 40.4155 131.113 40.157C131.511 39.8951 131.993 39.7642 132.56 39.7642C133.09 39.7642 133.552 39.8802 133.947 40.1122C134.341 40.3442 134.648 40.6757 134.867 41.1065C135.085 41.5341 135.195 42.0445 135.195 42.6378V47.5H133.077V43.0156C133.08 42.5483 132.961 42.1837 132.719 41.9219C132.477 41.6567 132.144 41.5241 131.72 41.5241C131.434 41.5241 131.183 41.5855 130.964 41.7081C130.748 41.8307 130.579 42.0097 130.457 42.245C130.337 42.477 130.276 42.7571 130.273 43.0852ZM140.244 47.6491C139.462 47.6491 138.789 47.4834 138.226 47.152C137.666 46.8172 137.235 46.3532 136.933 45.7599C136.635 45.1667 136.486 44.4839 136.486 43.7116C136.486 42.9295 136.636 42.2434 136.938 41.6534C137.243 41.0601 137.676 40.5978 138.236 40.2663C138.796 39.9316 139.462 39.7642 140.234 39.7642C140.9 39.7642 141.484 39.8852 141.984 40.1271C142.485 40.3691 142.881 40.7088 143.172 41.1463C143.464 41.5838 143.625 42.0975 143.655 42.6875H141.656C141.6 42.3063 141.451 41.9998 141.209 41.7678C140.97 41.5324 140.657 41.4148 140.269 41.4148C139.941 41.4148 139.654 41.5043 139.409 41.6832C139.167 41.8589 138.978 42.1158 138.842 42.4538C138.706 42.7919 138.638 43.2012 138.638 43.6818C138.638 44.169 138.705 44.5833 138.837 44.9247C138.973 45.2661 139.164 45.5263 139.409 45.7053C139.654 45.8842 139.941 45.9737 140.269 45.9737C140.511 45.9737 140.728 45.924 140.92 45.8246C141.116 45.7251 141.277 45.581 141.403 45.392C141.532 45.1998 141.616 44.9695 141.656 44.701H143.655C143.622 45.2843 143.462 45.7981 143.177 46.2422C142.896 46.683 142.506 47.0277 142.009 47.2763C141.512 47.5249 140.924 47.6491 140.244 47.6491ZM144.941 47.5V39.8636H147.059V47.5H144.941ZM146.005 38.8793C145.69 38.8793 145.42 38.7749 145.194 38.5661C144.972 38.3539 144.861 38.1004 144.861 37.8054C144.861 37.5137 144.972 37.2635 145.194 37.0547C145.42 36.8426 145.69 36.7365 146.005 36.7365C146.319 36.7365 146.588 36.8426 146.81 37.0547C147.035 37.2635 147.148 37.5137 147.148 37.8054C147.148 38.1004 147.035 38.3539 146.81 38.5661C146.588 38.7749 146.319 38.8793 146.005 38.8793ZM150.863 47.6442C150.375 47.6442 149.941 47.5597 149.56 47.3906C149.179 47.2183 148.877 46.9647 148.655 46.63C148.437 46.2919 148.327 45.871 148.327 45.3672C148.327 44.9429 148.405 44.5866 148.561 44.2983C148.717 44.0099 148.929 43.7779 149.197 43.6023C149.466 43.4266 149.771 43.294 150.112 43.2045C150.457 43.1151 150.818 43.0521 151.196 43.0156C151.64 42.9692 151.998 42.9261 152.27 42.8864C152.541 42.8433 152.739 42.7803 152.861 42.6974C152.984 42.6146 153.045 42.492 153.045 42.3295V42.2997C153.045 41.9848 152.946 41.7412 152.747 41.5689C152.551 41.3965 152.273 41.3104 151.912 41.3104C151.531 41.3104 151.227 41.3949 151.002 41.5639C150.777 41.7296 150.627 41.9384 150.554 42.1903L148.596 42.0312C148.695 41.5672 148.891 41.1662 149.182 40.8281C149.474 40.4867 149.85 40.2249 150.311 40.0426C150.775 39.857 151.312 39.7642 151.922 39.7642C152.346 39.7642 152.752 39.8139 153.14 39.9134C153.531 40.0128 153.877 40.1669 154.179 40.3757C154.484 40.5845 154.724 40.853 154.9 41.1811C155.075 41.5059 155.163 41.8954 155.163 42.3494V47.5H153.155V46.4411H153.095C152.972 46.6797 152.808 46.8902 152.603 47.0724C152.397 47.2514 152.15 47.3923 151.862 47.495C151.574 47.5945 151.241 47.6442 150.863 47.6442ZM151.469 46.1825C151.781 46.1825 152.056 46.1212 152.295 45.9986C152.533 45.8726 152.72 45.7036 152.856 45.4915C152.992 45.2794 153.06 45.0391 153.06 44.7706V43.9602C152.994 44.0033 152.903 44.0431 152.787 44.0795C152.674 44.1127 152.546 44.1442 152.404 44.174C152.261 44.2005 152.119 44.2254 151.976 44.2486C151.834 44.2685 151.705 44.2867 151.589 44.3033C151.34 44.3397 151.123 44.3977 150.937 44.4773C150.752 44.5568 150.607 44.6645 150.505 44.8004C150.402 44.933 150.351 45.0987 150.351 45.2976C150.351 45.5859 150.455 45.8063 150.664 45.9588C150.876 46.108 151.144 46.1825 151.469 46.1825ZM158.854 37.3182V47.5H156.736V37.3182H158.854ZM163.651 47.5V39.8636H165.769V47.5H163.651ZM164.715 38.8793C164.4 38.8793 164.13 38.7749 163.904 38.5661C163.682 38.3539 163.571 38.1004 163.571 37.8054C163.571 37.5137 163.682 37.2635 163.904 37.0547C164.13 36.8426 164.4 36.7365 164.715 36.7365C165.03 36.7365 165.298 36.8426 165.52 37.0547C165.746 37.2635 165.858 37.5137 165.858 37.8054C165.858 38.1004 165.746 38.3539 165.52 38.5661C165.298 38.7749 165.03 38.8793 164.715 38.8793ZM169.513 43.0852V47.5H167.395V39.8636H169.414V41.2109H169.503C169.672 40.7668 169.956 40.4155 170.353 40.157C170.751 39.8951 171.233 39.7642 171.8 39.7642C172.331 39.7642 172.793 39.8802 173.187 40.1122C173.582 40.3442 173.888 40.6757 174.107 41.1065C174.326 41.5341 174.435 42.0445 174.435 42.6378V47.5H172.317V43.0156C172.321 42.5483 172.201 42.1837 171.959 41.9219C171.717 41.6567 171.384 41.5241 170.96 41.5241C170.675 41.5241 170.423 41.5855 170.204 41.7081C169.989 41.8307 169.82 42.0097 169.697 42.245C169.578 42.477 169.517 42.7571 169.513 43.0852ZM182.388 42.0412L180.449 42.1605C180.416 41.9948 180.345 41.8456 180.235 41.7131C180.126 41.5772 179.982 41.4695 179.803 41.3899C179.627 41.3071 179.417 41.2656 179.171 41.2656C178.843 41.2656 178.567 41.3352 178.341 41.4744C178.116 41.6103 178.003 41.7926 178.003 42.0213C178.003 42.2036 178.076 42.3577 178.222 42.4837C178.368 42.6096 178.618 42.7107 178.973 42.7869L180.355 43.0653C181.097 43.2178 181.651 43.4631 182.015 43.8011C182.38 44.1392 182.562 44.5833 182.562 45.1335C182.562 45.634 182.415 46.0732 182.12 46.451C181.828 46.8288 181.427 47.1238 180.916 47.3359C180.409 47.5447 179.824 47.6491 179.161 47.6491C178.151 47.6491 177.345 47.4387 176.745 47.0178C176.149 46.5935 175.799 46.0168 175.696 45.2876L177.779 45.1783C177.842 45.4865 177.995 45.7218 178.237 45.8842C178.479 46.0433 178.789 46.1229 179.166 46.1229C179.538 46.1229 179.836 46.0516 180.061 45.9091C180.29 45.7633 180.406 45.576 180.409 45.3473C180.406 45.1551 180.325 44.9976 180.166 44.875C180.007 44.7491 179.761 44.6529 179.43 44.5866L178.108 44.3232C177.362 44.174 176.807 43.9155 176.442 43.5476C176.081 43.1797 175.9 42.7107 175.9 42.1406C175.9 41.6501 176.033 41.2275 176.298 40.8729C176.566 40.5182 176.942 40.2448 177.426 40.0526C177.914 39.8603 178.484 39.7642 179.137 39.7642C180.101 39.7642 180.86 39.968 181.414 40.3757C181.97 40.7834 182.295 41.3385 182.388 42.0412ZM183.826 47.5V39.8636H185.944V47.5H183.826ZM184.89 38.8793C184.575 38.8793 184.305 38.7749 184.079 38.5661C183.857 38.3539 183.746 38.1004 183.746 37.8054C183.746 37.5137 183.857 37.2635 184.079 37.0547C184.305 36.8426 184.575 36.7365 184.89 36.7365C185.204 36.7365 185.473 36.8426 185.695 37.0547C185.92 37.2635 186.033 37.5137 186.033 37.8054C186.033 38.1004 185.92 38.3539 185.695 38.5661C185.473 38.7749 185.204 38.8793 184.89 38.8793ZM191.01 50.5227C190.324 50.5227 189.736 50.4283 189.246 50.2393C188.758 50.0537 188.371 49.8002 188.082 49.4787C187.794 49.1572 187.607 48.7959 187.52 48.3949L189.479 48.1314C189.539 48.2839 189.633 48.4264 189.763 48.5589C189.892 48.6915 190.063 48.7976 190.275 48.8771C190.49 48.96 190.752 49.0014 191.06 49.0014C191.521 49.0014 191.9 48.8887 192.199 48.6634C192.5 48.4413 192.651 48.0684 192.651 47.5447V46.1477H192.562C192.469 46.3598 192.33 46.5604 192.144 46.7493C191.958 46.9382 191.72 47.0923 191.428 47.2116C191.136 47.331 190.788 47.3906 190.384 47.3906C189.811 47.3906 189.289 47.258 188.818 46.9929C188.351 46.7244 187.978 46.3151 187.699 45.7649C187.424 45.2114 187.287 44.5121 187.287 43.6669C187.287 42.8018 187.428 42.0793 187.709 41.4993C187.991 40.9193 188.366 40.4851 188.833 40.1967C189.304 39.9084 189.819 39.7642 190.379 39.7642C190.807 39.7642 191.165 39.8371 191.453 39.983C191.741 40.1255 191.973 40.3045 192.149 40.5199C192.328 40.732 192.466 40.9408 192.562 41.1463H192.641V39.8636H194.744V47.5746C194.744 48.2242 194.585 48.7678 194.267 49.2053C193.949 49.6428 193.508 49.9709 192.944 50.1896C192.384 50.4117 191.74 50.5227 191.01 50.5227ZM191.055 45.7997C191.397 45.7997 191.685 45.7152 191.92 45.5462C192.159 45.3738 192.341 45.1286 192.467 44.8104C192.596 44.4889 192.661 44.1044 192.661 43.657C192.661 43.2095 192.598 42.8217 192.472 42.4936C192.346 42.1622 192.164 41.9053 191.925 41.723C191.687 41.5407 191.397 41.4496 191.055 41.4496C190.707 41.4496 190.414 41.544 190.175 41.733C189.937 41.9186 189.756 42.1771 189.633 42.5085C189.511 42.84 189.449 43.2228 189.449 43.657C189.449 44.0978 189.511 44.4789 189.633 44.8004C189.759 45.1186 189.94 45.3655 190.175 45.5412C190.414 45.7135 190.707 45.7997 191.055 45.7997ZM198.477 43.0852V47.5H196.36V37.3182H198.418V41.2109H198.507C198.68 40.7602 198.958 40.4072 199.342 40.152C199.727 39.8935 200.209 39.7642 200.789 39.7642C201.32 39.7642 201.782 39.8802 202.176 40.1122C202.574 40.3409 202.882 40.6707 203.101 41.1016C203.323 41.5291 203.432 42.0412 203.429 42.6378V47.5H201.311V43.0156C201.315 42.545 201.195 42.1787 200.953 41.9169C200.715 41.6551 200.38 41.5241 199.949 41.5241C199.661 41.5241 199.405 41.5855 199.183 41.7081C198.965 41.8307 198.792 42.0097 198.666 42.245C198.544 42.477 198.481 42.7571 198.477 43.0852ZM209.088 39.8636V41.4545H204.489V39.8636H209.088ZM205.533 38.0341H207.651V45.1534C207.651 45.349 207.681 45.5014 207.74 45.6108C207.8 45.7169 207.883 45.7914 207.989 45.8345C208.098 45.8776 208.224 45.8991 208.367 45.8991C208.466 45.8991 208.566 45.8909 208.665 45.8743C208.764 45.8544 208.841 45.8395 208.894 45.8295L209.227 47.4055C209.121 47.4387 208.972 47.4768 208.779 47.5199C208.587 47.5663 208.353 47.5945 208.078 47.6044C207.568 47.6243 207.121 47.5563 206.736 47.4006C206.355 47.2448 206.058 47.0028 205.846 46.6747C205.634 46.3466 205.53 45.9323 205.533 45.4318V38.0341ZM216.655 42.0412L214.716 42.1605C214.683 41.9948 214.612 41.8456 214.503 41.7131C214.393 41.5772 214.249 41.4695 214.07 41.3899C213.894 41.3071 213.684 41.2656 213.439 41.2656C213.11 41.2656 212.834 41.3352 212.608 41.4744C212.383 41.6103 212.27 41.7926 212.27 42.0213C212.27 42.2036 212.343 42.3577 212.489 42.4837C212.635 42.6096 212.885 42.7107 213.24 42.7869L214.622 43.0653C215.364 43.2178 215.918 43.4631 216.282 43.8011C216.647 44.1392 216.829 44.5833 216.829 45.1335C216.829 45.634 216.682 46.0732 216.387 46.451C216.095 46.8288 215.694 47.1238 215.184 47.3359C214.677 47.5447 214.092 47.6491 213.429 47.6491C212.418 47.6491 211.612 47.4387 211.012 47.0178C210.416 46.5935 210.066 46.0168 209.963 45.2876L212.047 45.1783C212.11 45.4865 212.262 45.7218 212.504 45.8842C212.746 46.0433 213.056 46.1229 213.434 46.1229C213.805 46.1229 214.103 46.0516 214.329 45.9091C214.557 45.7633 214.673 45.576 214.677 45.3473C214.673 45.1551 214.592 44.9976 214.433 44.875C214.274 44.7491 214.029 44.6529 213.697 44.5866L212.375 44.3232C211.629 44.174 211.074 43.9155 210.709 43.5476C210.348 43.1797 210.167 42.7107 210.167 42.1406C210.167 41.6501 210.3 41.2275 210.565 40.8729C210.833 40.5182 211.21 40.2448 211.694 40.0526C212.181 39.8603 212.751 39.7642 213.404 39.7642C214.368 39.7642 215.127 39.968 215.681 40.3757C216.238 40.7834 216.562 41.3385 216.655 42.0412Z" fill="#9FACB8"/>
<g filter="url(#filter1_i_564_3610)">
<rect x="229" y="20" width="44" height="44" rx="22" fill="url(#paint0_radial_564_3610)"/>
<path d="M254.738 48.3438H247.362V46.9037L251.266 42.9197C252.215 41.9704 252.69 41.1491 252.69 40.4557C252.69 39.9224 252.53 39.5011 252.21 39.1917C251.89 38.8824 251.474 38.7277 250.962 38.7277C250.023 38.7277 249.33 39.1917 248.882 40.1198L247.33 39.2077C247.671 38.4717 248.162 37.9117 248.802 37.5277C249.442 37.1331 250.156 36.9357 250.946 36.9357C251.938 36.9357 252.78 37.2451 253.474 37.8637C254.178 38.4931 254.53 39.3357 254.53 40.3917C254.53 41.5224 253.895 42.7384 252.626 44.0397L250.098 46.5677H254.738V48.3438Z" fill="white"/>
<rect x="230" y="21" width="42" height="42" rx="21" stroke="#A93691" stroke-width="2"/>
</g>
</g>
<defs>
<filter id="filter0_d_564_3610" x="0" y="0" width="305" height="96" filterUnits="userSpaceOnUse" color-interpolation-filters="sRGB">
<feFlood flood-opacity="0" result="BackgroundImageFix"/>
<feColorMatrix in="SourceAlpha" type="matrix" values="0 0 0 0 0 0 0 0 0 0 0 0 0 0 0 0 0 0 127 0" result="hardAlpha"/>
<feOffset dy="6"/>
<feGaussianBlur stdDeviation="6"/>
<feColorMatrix type="matrix" values="0 0 0 0 0 0 0 0 0 0 0 0 0 0 0 0 0 0 0.11 0"/>
<feBlend mode="normal" in2="BackgroundImageFix" result="effect1_dropShadow_564_3610"/>
<feBlend mode="normal" in="SourceGraphic" in2="effect1_dropShadow_564_3610" result="shape"/>
</filter>
<filter id="filter1_i_564_3610" x="229" y="20" width="44" height="44" filterUnits="userSpaceOnUse" color-interpolation-filters="sRGB">
<feFlood flood-opacity="0" result="BackgroundImageFix"/>
<feBlend mode="normal" in="SourceGraphic" in2="BackgroundImageFix" result="shape"/>
<feColorMatrix in="SourceAlpha" type="matrix" values="0 0 0 0 0 0 0 0 0 0 0 0 0 0 0 0 0 0 127 0" result="hardAlpha"/>
<feOffset/>
<feGaussianBlur stdDeviation="2.5"/>
<feComposite in2="hardAlpha" operator="arithmetic" k2="-1" k3="1"/>
<feColorMatrix type="matrix" values="0 0 0 0 0.0392157 0 0 0 0 0.360784 0 0 0 0 0.341176 0 0 0 1 0"/>
<feBlend mode="normal" in2="shape" result="effect1_innerShadow_564_3610"/>
</filter>
<radialGradient id="paint0_radial_564_3610" cx="0" cy="0" r="1" gradientUnits="userSpaceOnUse" gradientTransform="translate(251 42) rotate(45) scale(31.1127)">
<stop stop-color="#A93691"/>
<stop offset="1" stop-color="#3D0631"/>
</radialGradient>
</defs>
</svg>
