<svg width="265" height="100" viewBox="0 0 265 100" fill="none" xmlns="http://www.w3.org/2000/svg">
<g filter="url(#filter0_d_564_3615)">
<rect x="12" y="6" width="241" height="76" rx="8" fill="white"/>
<g filter="url(#filter1_i_564_3615)">
<rect x="36" y="21.75" width="44" height="44" rx="22" fill="url(#paint0_radial_564_3615)"/>
<path d="M61.3957 40.4617L59.1237 43.4697C59.9557 43.6617 60.617 44.0457 61.1077 44.6217C61.609 45.1871 61.8597 45.8804 61.8597 46.7017C61.8597 47.8217 61.481 48.7017 60.7237 49.3417C59.977 49.9817 59.049 50.3018 57.9397 50.3018C57.065 50.3018 56.2917 50.1044 55.6197 49.7097C54.9477 49.3044 54.4677 48.7284 54.1797 47.9818L55.7477 47.0697C56.0784 48.0297 56.809 48.5097 57.9397 48.5097C58.5797 48.5097 59.0864 48.3497 59.4597 48.0297C59.833 47.6991 60.0197 47.2564 60.0197 46.7017C60.0197 46.1471 59.833 45.7098 59.4597 45.3898C59.0864 45.0697 58.5797 44.9097 57.9397 44.9097H57.5237L56.7877 43.8057L59.2037 40.6217H54.5157V38.8937H61.3957V40.4617Z" fill="white"/>
<rect x="37" y="22.75" width="42" height="42" rx="21" stroke="#151718" stroke-width="2"/>
</g>
<path d="M100.678 49.25V39.0682H107.419V40.843H102.831V43.2692H106.972V45.044H102.831V49.25H100.678ZM108.828 49.25V41.6136H110.945V49.25H108.828ZM109.892 40.6293C109.577 40.6293 109.307 40.5249 109.081 40.3161C108.859 40.1039 108.748 39.8504 108.748 39.5554C108.748 39.2637 108.859 39.0135 109.081 38.8047C109.307 38.5926 109.577 38.4865 109.892 38.4865C110.206 38.4865 110.475 38.5926 110.697 38.8047C110.922 39.0135 111.035 39.2637 111.035 39.5554C111.035 39.8504 110.922 40.1039 110.697 40.3161C110.475 40.5249 110.206 40.6293 109.892 40.6293ZM114.76 44.8352V49.25H112.642V41.6136H114.661V42.9609H114.75C114.919 42.5168 115.202 42.1655 115.6 41.907C115.998 41.6451 116.48 41.5142 117.047 41.5142C117.577 41.5142 118.04 41.6302 118.434 41.8622C118.828 42.0942 119.135 42.4257 119.354 42.8565C119.572 43.2841 119.682 43.7945 119.682 44.3878V49.25H117.564V44.7656C117.567 44.2983 117.448 43.9337 117.206 43.6719C116.964 43.4067 116.631 43.2741 116.207 43.2741C115.922 43.2741 115.67 43.3355 115.451 43.4581C115.236 43.5807 115.067 43.7597 114.944 43.995C114.825 44.227 114.763 44.5071 114.76 44.8352ZM123.529 49.3942C123.041 49.3942 122.607 49.3097 122.226 49.1406C121.845 48.9683 121.543 48.7147 121.321 48.38C121.102 48.0419 120.993 47.621 120.993 47.1172C120.993 46.6929 121.071 46.3366 121.227 46.0483C121.383 45.7599 121.595 45.5279 121.863 45.3523C122.132 45.1766 122.436 45.044 122.778 44.9545C123.123 44.8651 123.484 44.8021 123.862 44.7656C124.306 44.7192 124.664 44.6761 124.936 44.6364C125.207 44.5933 125.405 44.5303 125.527 44.4474C125.65 44.3646 125.711 44.242 125.711 44.0795V44.0497C125.711 43.7348 125.612 43.4912 125.413 43.3189C125.217 43.1465 124.939 43.0604 124.578 43.0604C124.196 43.0604 123.893 43.1449 123.668 43.3139C123.442 43.4796 123.293 43.6884 123.22 43.9403L121.262 43.7812C121.361 43.3172 121.557 42.9162 121.848 42.5781C122.14 42.2367 122.516 41.9749 122.977 41.7926C123.441 41.607 123.978 41.5142 124.588 41.5142C125.012 41.5142 125.418 41.5639 125.806 41.6634C126.197 41.7628 126.543 41.9169 126.845 42.1257C127.15 42.3345 127.39 42.603 127.566 42.9311C127.741 43.2559 127.829 43.6454 127.829 44.0994V49.25H125.82V48.1911H125.761C125.638 48.4297 125.474 48.6402 125.269 48.8224C125.063 49.0014 124.816 49.1423 124.528 49.245C124.24 49.3445 123.906 49.3942 123.529 49.3942ZM124.135 47.9325C124.447 47.9325 124.722 47.8712 124.96 47.7486C125.199 47.6226 125.386 47.4536 125.522 47.2415C125.658 47.0294 125.726 46.7891 125.726 46.5206V45.7102C125.66 45.7533 125.569 45.7931 125.453 45.8295C125.34 45.8627 125.212 45.8942 125.07 45.924C124.927 45.9505 124.785 45.9754 124.642 45.9986C124.5 46.0185 124.37 46.0367 124.254 46.0533C124.006 46.0897 123.789 46.1477 123.603 46.2273C123.418 46.3068 123.273 46.4145 123.171 46.5504C123.068 46.683 123.017 46.8487 123.017 47.0476C123.017 47.3359 123.121 47.5563 123.33 47.7088C123.542 47.858 123.81 47.9325 124.135 47.9325ZM131.59 44.8352V49.25H129.472V41.6136H131.491V42.9609H131.58C131.749 42.5168 132.032 42.1655 132.43 41.907C132.828 41.6451 133.31 41.5142 133.877 41.5142C134.407 41.5142 134.87 41.6302 135.264 41.8622C135.658 42.0942 135.965 42.4257 136.184 42.8565C136.403 43.2841 136.512 43.7945 136.512 44.3878V49.25H134.394V44.7656C134.397 44.2983 134.278 43.9337 134.036 43.6719C133.794 43.4067 133.461 43.2741 133.037 43.2741C132.752 43.2741 132.5 43.3355 132.281 43.4581C132.066 43.5807 131.897 43.7597 131.774 43.995C131.655 44.227 131.593 44.5071 131.59 44.8352ZM141.631 49.3991C140.849 49.3991 140.176 49.2334 139.613 48.902C139.053 48.5672 138.622 48.1032 138.32 47.5099C138.022 46.9167 137.873 46.2339 137.873 45.4616C137.873 44.6795 138.024 43.9934 138.325 43.4034C138.63 42.8101 139.063 42.3478 139.623 42.0163C140.183 41.6816 140.849 41.5142 141.621 41.5142C142.288 41.5142 142.871 41.6352 143.371 41.8771C143.872 42.1191 144.268 42.4588 144.56 42.8963C144.851 43.3338 145.012 43.8475 145.042 44.4375H143.043C142.987 44.0563 142.838 43.7498 142.596 43.5178C142.357 43.2824 142.044 43.1648 141.656 43.1648C141.328 43.1648 141.041 43.2543 140.796 43.4332C140.554 43.6089 140.365 43.8658 140.229 44.2038C140.094 44.5419 140.026 44.9512 140.026 45.4318C140.026 45.919 140.092 46.3333 140.224 46.6747C140.36 47.0161 140.551 47.2763 140.796 47.4553C141.041 47.6342 141.328 47.7237 141.656 47.7237C141.898 47.7237 142.115 47.674 142.308 47.5746C142.503 47.4751 142.664 47.331 142.79 47.142C142.919 46.9498 143.004 46.7195 143.043 46.451H145.042C145.009 47.0343 144.85 47.5481 144.565 47.9922C144.283 48.433 143.893 48.7777 143.396 49.0263C142.899 49.2749 142.311 49.3991 141.631 49.3991ZM149.878 49.3991C149.093 49.3991 148.416 49.2401 147.85 48.9219C147.286 48.6004 146.852 48.1463 146.547 47.5597C146.242 46.9697 146.09 46.272 146.09 45.4666C146.09 44.6811 146.242 43.9917 146.547 43.3984C146.852 42.8052 147.281 42.3428 147.835 42.0114C148.392 41.6799 149.044 41.5142 149.794 41.5142C150.297 41.5142 150.766 41.5954 151.2 41.7578C151.638 41.9169 152.019 42.1572 152.344 42.4787C152.672 42.8002 152.927 43.2045 153.11 43.6918C153.292 44.1757 153.383 44.7424 153.383 45.392V45.9737H146.935V44.6612H151.389C151.389 44.3563 151.323 44.0862 151.191 43.8509C151.058 43.6155 150.874 43.4316 150.639 43.299C150.407 43.1631 150.137 43.0952 149.828 43.0952C149.507 43.0952 149.222 43.1697 148.973 43.3189C148.728 43.4647 148.536 43.6619 148.396 43.9105C148.257 44.1558 148.186 44.4292 148.183 44.7308V45.9787C148.183 46.3565 148.252 46.683 148.392 46.9581C148.534 47.2332 148.735 47.4453 148.993 47.5945C149.252 47.7436 149.558 47.8182 149.913 47.8182C150.148 47.8182 150.364 47.785 150.559 47.7188C150.755 47.6525 150.922 47.553 151.061 47.4205C151.2 47.2879 151.307 47.1255 151.379 46.9332L153.338 47.0625C153.239 47.5331 153.035 47.9441 152.727 48.2955C152.422 48.6435 152.027 48.9152 151.544 49.1108C151.063 49.303 150.508 49.3991 149.878 49.3991Z" fill="#9FACB8"/>
<path d="M161.456 49.3991C160.673 49.3991 160.001 49.2334 159.437 48.902C158.877 48.5672 158.446 48.1032 158.145 47.5099C157.846 46.9167 157.697 46.2339 157.697 45.4616C157.697 44.6795 157.848 43.9934 158.15 43.4034C158.454 42.8101 158.887 42.3478 159.447 42.0163C160.007 41.6816 160.673 41.5142 161.446 41.5142C162.112 41.5142 162.695 41.6352 163.196 41.8771C163.696 42.1191 164.092 42.4588 164.384 42.8963C164.676 43.3338 164.836 43.8475 164.866 44.4375H162.868C162.811 44.0563 162.662 43.7498 162.42 43.5178C162.181 43.2824 161.868 43.1648 161.48 43.1648C161.152 43.1648 160.866 43.2543 160.62 43.4332C160.378 43.6089 160.19 43.8658 160.054 44.2038C159.918 44.5419 159.85 44.9512 159.85 45.4318C159.85 45.919 159.916 46.3333 160.049 46.6747C160.185 47.0161 160.375 47.2763 160.62 47.4553C160.866 47.6342 161.152 47.7237 161.48 47.7237C161.722 47.7237 161.94 47.674 162.132 47.5746C162.327 47.4751 162.488 47.331 162.614 47.142C162.743 46.9498 162.828 46.7195 162.868 46.451H164.866C164.833 47.0343 164.674 47.5481 164.389 47.9922C164.107 48.433 163.718 48.7777 163.221 49.0263C162.723 49.2749 162.135 49.3991 161.456 49.3991ZM169.672 49.3991C168.9 49.3991 168.232 49.2351 167.669 48.907C167.109 48.5755 166.676 48.1148 166.371 47.5249C166.066 46.9316 165.914 46.2438 165.914 45.4616C165.914 44.6728 166.066 43.9834 166.371 43.3935C166.676 42.8002 167.109 42.3395 167.669 42.0114C168.232 41.6799 168.9 41.5142 169.672 41.5142C170.445 41.5142 171.111 41.6799 171.671 42.0114C172.234 42.3395 172.669 42.8002 172.974 43.3935C173.278 43.9834 173.431 44.6728 173.431 45.4616C173.431 46.2438 173.278 46.9316 172.974 47.5249C172.669 48.1148 172.234 48.5755 171.671 48.907C171.111 49.2351 170.445 49.3991 169.672 49.3991ZM169.682 47.7585C170.034 47.7585 170.327 47.6591 170.562 47.4602C170.798 47.258 170.975 46.983 171.094 46.6349C171.217 46.2869 171.278 45.8909 171.278 45.4467C171.278 45.0026 171.217 44.6065 171.094 44.2585C170.975 43.9105 170.798 43.6354 170.562 43.4332C170.327 43.2311 170.034 43.13 169.682 43.13C169.328 43.13 169.029 43.2311 168.787 43.4332C168.549 43.6354 168.368 43.9105 168.246 44.2585C168.126 44.6065 168.067 45.0026 168.067 45.4467C168.067 45.8909 168.126 46.2869 168.246 46.6349C168.368 46.983 168.549 47.258 168.787 47.4602C169.029 47.6591 169.328 47.7585 169.682 47.7585ZM176.986 49.3942C176.498 49.3942 176.064 49.3097 175.683 49.1406C175.302 48.9683 175 48.7147 174.778 48.38C174.559 48.0419 174.45 47.621 174.45 47.1172C174.45 46.6929 174.528 46.3366 174.684 46.0483C174.84 45.7599 175.052 45.5279 175.32 45.3523C175.589 45.1766 175.894 45.044 176.235 44.9545C176.58 44.8651 176.941 44.8021 177.319 44.7656C177.763 44.7192 178.121 44.6761 178.393 44.6364C178.664 44.5933 178.862 44.5303 178.984 44.4474C179.107 44.3646 179.168 44.242 179.168 44.0795V44.0497C179.168 43.7348 179.069 43.4912 178.87 43.3189C178.674 43.1465 178.396 43.0604 178.035 43.0604C177.653 43.0604 177.35 43.1449 177.125 43.3139C176.899 43.4796 176.75 43.6884 176.677 43.9403L174.719 43.7812C174.818 43.3172 175.014 42.9162 175.305 42.5781C175.597 42.2367 175.973 41.9749 176.434 41.7926C176.898 41.607 177.435 41.5142 178.045 41.5142C178.469 41.5142 178.875 41.5639 179.263 41.6634C179.654 41.7628 180 41.9169 180.302 42.1257C180.607 42.3345 180.847 42.603 181.023 42.9311C181.198 43.2559 181.286 43.6454 181.286 44.0994V49.25H179.278V48.1911H179.218C179.095 48.4297 178.931 48.6402 178.726 48.8224C178.52 49.0014 178.273 49.1423 177.985 49.245C177.697 49.3445 177.363 49.3942 176.986 49.3942ZM177.592 47.9325C177.904 47.9325 178.179 47.8712 178.417 47.7486C178.656 47.6226 178.843 47.4536 178.979 47.2415C179.115 47.0294 179.183 46.7891 179.183 46.5206V45.7102C179.117 45.7533 179.026 45.7931 178.91 45.8295C178.797 45.8627 178.669 45.8942 178.527 45.924C178.384 45.9505 178.242 45.9754 178.099 45.9986C177.957 46.0185 177.827 46.0367 177.711 46.0533C177.463 46.0897 177.246 46.1477 177.06 46.2273C176.875 46.3068 176.73 46.4145 176.628 46.5504C176.525 46.683 176.474 46.8487 176.474 47.0476C176.474 47.3359 176.578 47.5563 176.787 47.7088C176.999 47.858 177.267 47.9325 177.592 47.9325ZM186.379 49.3991C185.597 49.3991 184.924 49.2334 184.361 48.902C183.801 48.5672 183.37 48.1032 183.068 47.5099C182.77 46.9167 182.621 46.2339 182.621 45.4616C182.621 44.6795 182.772 43.9934 183.073 43.4034C183.378 42.8101 183.811 42.3478 184.371 42.0163C184.931 41.6816 185.597 41.5142 186.369 41.5142C187.036 41.5142 187.619 41.6352 188.119 41.8771C188.62 42.1191 189.016 42.4588 189.308 42.8963C189.599 43.3338 189.76 43.8475 189.79 44.4375H187.791C187.735 44.0563 187.586 43.7498 187.344 43.5178C187.105 43.2824 186.792 43.1648 186.404 43.1648C186.076 43.1648 185.789 43.2543 185.544 43.4332C185.302 43.6089 185.113 43.8658 184.977 44.2038C184.842 44.5419 184.774 44.9512 184.774 45.4318C184.774 45.919 184.84 46.3333 184.972 46.6747C185.108 47.0161 185.299 47.2763 185.544 47.4553C185.789 47.6342 186.076 47.7237 186.404 47.7237C186.646 47.7237 186.863 47.674 187.056 47.5746C187.251 47.4751 187.412 47.331 187.538 47.142C187.667 46.9498 187.752 46.7195 187.791 46.451H189.79C189.757 47.0343 189.598 47.5481 189.313 47.9922C189.031 48.433 188.642 48.7777 188.144 49.0263C187.647 49.2749 187.059 49.3991 186.379 49.3991ZM193.264 44.8352V49.25H191.146V39.0682H193.204V42.9609H193.294C193.466 42.5102 193.744 42.1572 194.129 41.902C194.513 41.6435 194.996 41.5142 195.576 41.5142C196.106 41.5142 196.568 41.6302 196.963 41.8622C197.36 42.0909 197.669 42.4207 197.887 42.8516C198.109 43.2791 198.219 43.7912 198.216 44.3878V49.25H196.098V44.7656C196.101 44.295 195.982 43.9287 195.74 43.6669C195.501 43.4051 195.166 43.2741 194.735 43.2741C194.447 43.2741 194.192 43.3355 193.97 43.4581C193.751 43.5807 193.579 43.7597 193.453 43.995C193.33 44.227 193.267 44.5071 193.264 44.8352ZM201.12 49.3793C200.792 49.3793 200.51 49.2633 200.275 49.0312C200.043 48.7959 199.927 48.5142 199.927 48.1861C199.927 47.8613 200.043 47.5829 200.275 47.3509C200.51 47.1188 200.792 47.0028 201.12 47.0028C201.438 47.0028 201.717 47.1188 201.955 47.3509C202.194 47.5829 202.313 47.8613 202.313 48.1861C202.313 48.4048 202.257 48.6054 202.144 48.7876C202.035 48.9666 201.891 49.1108 201.712 49.2202C201.533 49.3262 201.336 49.3793 201.12 49.3793Z" fill="#A93691"/>
</g>
<defs>
<filter id="filter0_d_564_3615" x="0" y="0" width="265" height="100" filterUnits="userSpaceOnUse" color-interpolation-filters="sRGB">
<feFlood flood-opacity="0" result="BackgroundImageFix"/>
<feColorMatrix in="SourceAlpha" type="matrix" values="0 0 0 0 0 0 0 0 0 0 0 0 0 0 0 0 0 0 127 0" result="hardAlpha"/>
<feOffset dy="6"/>
<feGaussianBlur stdDeviation="6"/>
<feColorMatrix type="matrix" values="0 0 0 0 0 0 0 0 0 0 0 0 0 0 0 0 0 0 0.11 0"/>
<feBlend mode="normal" in2="BackgroundImageFix" result="effect1_dropShadow_564_3615"/>
<feBlend mode="normal" in="SourceGraphic" in2="effect1_dropShadow_564_3615" result="shape"/>
</filter>
<filter id="filter1_i_564_3615" x="36" y="21.75" width="44" height="44" filterUnits="userSpaceOnUse" color-interpolation-filters="sRGB">
<feFlood flood-opacity="0" result="BackgroundImageFix"/>
<feBlend mode="normal" in="SourceGraphic" in2="BackgroundImageFix" result="shape"/>
<feColorMatrix in="SourceAlpha" type="matrix" values="0 0 0 0 0 0 0 0 0 0 0 0 0 0 0 0 0 0 127 0" result="hardAlpha"/>
<feOffset/>
<feGaussianBlur stdDeviation="2.5"/>
<feComposite in2="hardAlpha" operator="arithmetic" k2="-1" k3="1"/>
<feColorMatrix type="matrix" values="0 0 0 0 0.0392157 0 0 0 0 0.360784 0 0 0 0 0.341176 0 0 0 1 0"/>
<feBlend mode="normal" in2="shape" result="effect1_innerShadow_564_3615"/>
</filter>
<radialGradient id="paint0_radial_564_3615" cx="0" cy="0" r="1" gradientUnits="userSpaceOnUse" gradientTransform="translate(58 43.75) rotate(45) scale(31.1127)">
<stop stop-color="#042253"/>
<stop offset="1" stop-color="#01112C"/>
</radialGradient>
</defs>
</svg>
