<svg width="306" height="100" viewBox="0 0 306 100" fill="none" xmlns="http://www.w3.org/2000/svg">
<g filter="url(#filter0_d_564_3629)">
<rect x="12" y="6" width="282" height="76" rx="8" fill="white"/>
<g filter="url(#filter1_i_564_3629)">
<rect x="36" y="21.75" width="44" height="44" rx="22" fill="url(#paint0_radial_564_3629)"/>
<path d="M55.3314 39.9337L58.2754 38.8937H59.8754V50.0938H58.0354V40.8617L55.7794 41.5017L55.3314 39.9337Z" fill="white"/>
<rect x="37" y="22.75" width="42" height="42" rx="21" stroke="#FA8701" stroke-opacity="0.93" stroke-width="2"/>
</g>
<path d="M95.2687 49.25V39.0682H99.2858C100.058 39.0682 100.716 39.2157 101.259 39.5107C101.803 39.8023 102.217 40.2083 102.502 40.7287C102.791 41.2457 102.935 41.8423 102.935 42.5185C102.935 43.1946 102.789 43.7912 102.497 44.3082C102.206 44.8253 101.783 45.228 101.23 45.5163C100.679 45.8047 100.013 45.9489 99.2311 45.9489H96.6707V44.2237H98.8831C99.2974 44.2237 99.6388 44.1525 99.9072 44.0099C100.179 43.8641 100.381 43.6636 100.514 43.4084C100.65 43.1499 100.718 42.8532 100.718 42.5185C100.718 42.1804 100.65 41.8854 100.514 41.6335C100.381 41.3783 100.179 41.1811 99.9072 41.0419C99.6354 40.8994 99.2907 40.8281 98.8731 40.8281H97.4214V49.25H95.2687ZM107.65 49.3991C106.865 49.3991 106.189 49.2401 105.622 48.9219C105.059 48.6004 104.624 48.1463 104.32 47.5597C104.015 46.9697 103.862 46.272 103.862 45.4666C103.862 44.6811 104.015 43.9917 104.32 43.3984C104.624 42.8052 105.054 42.3428 105.607 42.0114C106.164 41.6799 106.817 41.5142 107.566 41.5142C108.07 41.5142 108.539 41.5954 108.973 41.7578C109.41 41.9169 109.792 42.1572 110.116 42.4787C110.445 42.8002 110.7 43.2045 110.882 43.6918C111.064 44.1757 111.155 44.7424 111.155 45.392V45.9737H104.707V44.6612H109.162C109.162 44.3563 109.096 44.0862 108.963 43.8509C108.83 43.6155 108.646 43.4316 108.411 43.299C108.179 43.1631 107.909 43.0952 107.601 43.0952C107.279 43.0952 106.994 43.1697 106.746 43.3189C106.5 43.4647 106.308 43.6619 106.169 43.9105C106.03 44.1558 105.958 44.4292 105.955 44.7308V45.9787C105.955 46.3565 106.025 46.683 106.164 46.9581C106.306 47.2332 106.507 47.4453 106.766 47.5945C107.024 47.7436 107.331 47.8182 107.685 47.8182C107.921 47.8182 108.136 47.785 108.332 47.7188C108.527 47.6525 108.695 47.553 108.834 47.4205C108.973 47.2879 109.079 47.1255 109.152 46.9332L111.111 47.0625C111.011 47.5331 110.807 47.9441 110.499 48.2955C110.194 48.6435 109.8 48.9152 109.316 49.1108C108.835 49.303 108.28 49.3991 107.65 49.3991ZM112.538 49.25V41.6136H114.591V42.946H114.67C114.81 42.4721 115.043 42.1141 115.371 41.8722C115.699 41.6269 116.077 41.5043 116.505 41.5043C116.611 41.5043 116.725 41.5109 116.848 41.5241C116.971 41.5374 117.078 41.5556 117.171 41.5788V43.4581C117.072 43.4283 116.934 43.4018 116.758 43.3786C116.583 43.3554 116.422 43.3438 116.276 43.3438C115.965 43.3438 115.686 43.4117 115.441 43.5476C115.199 43.6802 115.007 43.8658 114.864 44.1044C114.725 44.343 114.655 44.6181 114.655 44.9297V49.25H112.538ZM124.62 43.7912L122.681 43.9105C122.648 43.7448 122.576 43.5956 122.467 43.4631C122.358 43.3272 122.214 43.2195 122.035 43.1399C121.859 43.0571 121.648 43.0156 121.403 43.0156C121.075 43.0156 120.798 43.0852 120.573 43.2244C120.348 43.3603 120.235 43.5426 120.235 43.7713C120.235 43.9536 120.308 44.1077 120.454 44.2337C120.599 44.3596 120.85 44.4607 121.204 44.5369L122.586 44.8153C123.329 44.9678 123.882 45.2131 124.247 45.5511C124.611 45.8892 124.794 46.3333 124.794 46.8835C124.794 47.384 124.646 47.8232 124.351 48.201C124.06 48.5788 123.659 48.8738 123.148 49.0859C122.641 49.2947 122.056 49.3991 121.393 49.3991C120.382 49.3991 119.577 49.1887 118.977 48.7678C118.38 48.3435 118.031 47.7668 117.928 47.0376L120.011 46.9283C120.074 47.2365 120.227 47.4718 120.468 47.6342C120.71 47.7933 121.02 47.8729 121.398 47.8729C121.769 47.8729 122.068 47.8016 122.293 47.6591C122.522 47.5133 122.638 47.326 122.641 47.0973C122.638 46.9051 122.557 46.7476 122.397 46.625C122.238 46.4991 121.993 46.4029 121.662 46.3366L120.339 46.0732C119.593 45.924 119.038 45.6655 118.674 45.2976C118.312 44.9297 118.132 44.4607 118.132 43.8906C118.132 43.4001 118.264 42.9775 118.53 42.6229C118.798 42.2682 119.174 41.9948 119.658 41.8026C120.145 41.6103 120.715 41.5142 121.368 41.5142C122.333 41.5142 123.092 41.718 123.645 42.1257C124.202 42.5334 124.527 43.0885 124.62 43.7912ZM129.578 49.3991C128.805 49.3991 128.138 49.2351 127.574 48.907C127.014 48.5755 126.581 48.1148 126.277 47.5249C125.972 46.9316 125.819 46.2438 125.819 45.4616C125.819 44.6728 125.972 43.9834 126.277 43.3935C126.581 42.8002 127.014 42.3395 127.574 42.0114C128.138 41.6799 128.805 41.5142 129.578 41.5142C130.35 41.5142 131.016 41.6799 131.576 42.0114C132.14 42.3395 132.574 42.8002 132.879 43.3935C133.184 43.9834 133.336 44.6728 133.336 45.4616C133.336 46.2438 133.184 46.9316 132.879 47.5249C132.574 48.1148 132.14 48.5755 131.576 48.907C131.016 49.2351 130.35 49.3991 129.578 49.3991ZM129.588 47.7585C129.939 47.7585 130.232 47.6591 130.468 47.4602C130.703 47.258 130.88 46.983 131 46.6349C131.122 46.2869 131.184 45.8909 131.184 45.4467C131.184 45.0026 131.122 44.6065 131 44.2585C130.88 43.9105 130.703 43.6354 130.468 43.4332C130.232 43.2311 129.939 43.13 129.588 43.13C129.233 43.13 128.935 43.2311 128.693 43.4332C128.454 43.6354 128.273 43.9105 128.151 44.2585C128.032 44.6065 127.972 45.0026 127.972 45.4467C127.972 45.8909 128.032 46.2869 128.151 46.6349C128.273 46.983 128.454 47.258 128.693 47.4602C128.935 47.6591 129.233 47.7585 129.588 47.7585ZM136.831 44.8352V49.25H134.713V41.6136H136.732V42.9609H136.821C136.99 42.5168 137.274 42.1655 137.671 41.907C138.069 41.6451 138.551 41.5142 139.118 41.5142C139.648 41.5142 140.111 41.6302 140.505 41.8622C140.9 42.0942 141.206 42.4257 141.425 42.8565C141.644 43.2841 141.753 43.7945 141.753 44.3878V49.25H139.635V44.7656C139.639 44.2983 139.519 43.9337 139.277 43.6719C139.035 43.4067 138.702 43.2741 138.278 43.2741C137.993 43.2741 137.741 43.3355 137.522 43.4581C137.307 43.5807 137.138 43.7597 137.015 43.995C136.896 44.227 136.835 44.5071 136.831 44.8352ZM145.6 49.3942C145.113 49.3942 144.678 49.3097 144.297 49.1406C143.916 48.9683 143.615 48.7147 143.392 48.38C143.174 48.0419 143.064 47.621 143.064 47.1172C143.064 46.6929 143.142 46.3366 143.298 46.0483C143.454 45.7599 143.666 45.5279 143.934 45.3523C144.203 45.1766 144.508 45.044 144.849 44.9545C145.194 44.8651 145.555 44.8021 145.933 44.7656C146.377 44.7192 146.735 44.6761 147.007 44.6364C147.279 44.5933 147.476 44.5303 147.598 44.4474C147.721 44.3646 147.782 44.242 147.782 44.0795V44.0497C147.782 43.7348 147.683 43.4912 147.484 43.3189C147.289 43.1465 147.01 43.0604 146.649 43.0604C146.268 43.0604 145.964 43.1449 145.739 43.3139C145.514 43.4796 145.365 43.6884 145.292 43.9403L143.333 43.7812C143.432 43.3172 143.628 42.9162 143.919 42.5781C144.211 42.2367 144.587 41.9749 145.048 41.7926C145.512 41.607 146.049 41.5142 146.659 41.5142C147.083 41.5142 147.489 41.5639 147.877 41.6634C148.268 41.7628 148.614 41.9169 148.916 42.1257C149.221 42.3345 149.461 42.603 149.637 42.9311C149.812 43.2559 149.9 43.6454 149.9 44.0994V49.25H147.892V48.1911H147.832C147.709 48.4297 147.545 48.6402 147.34 48.8224C147.134 49.0014 146.888 49.1423 146.599 49.245C146.311 49.3445 145.978 49.3942 145.6 49.3942ZM146.206 47.9325C146.518 47.9325 146.793 47.8712 147.032 47.7486C147.27 47.6226 147.458 47.4536 147.593 47.2415C147.729 47.0294 147.797 46.7891 147.797 46.5206V45.7102C147.731 45.7533 147.64 45.7931 147.524 45.8295C147.411 45.8627 147.284 45.8942 147.141 45.924C146.999 45.9505 146.856 45.9754 146.714 45.9986C146.571 46.0185 146.442 46.0367 146.326 46.0533C146.077 46.0897 145.86 46.1477 145.674 46.2273C145.489 46.3068 145.345 46.4145 145.242 46.5504C145.139 46.683 145.088 46.8487 145.088 47.0476C145.088 47.3359 145.192 47.5563 145.401 47.7088C145.613 47.858 145.882 47.9325 146.206 47.9325ZM153.661 39.0682V49.25H151.543V39.0682H153.661ZM155.358 49.25V41.6136H157.476V49.25H155.358ZM156.422 40.6293C156.107 40.6293 155.837 40.5249 155.611 40.3161C155.389 40.1039 155.278 39.8504 155.278 39.5554C155.278 39.2637 155.389 39.0135 155.611 38.8047C155.837 38.5926 156.107 38.4865 156.422 38.4865C156.737 38.4865 157.005 38.5926 157.227 38.8047C157.453 39.0135 157.565 39.2637 157.565 39.5554C157.565 39.8504 157.453 40.1039 157.227 40.3161C157.005 40.5249 156.737 40.6293 156.422 40.6293ZM159.133 49.25V47.9872L162.871 43.3587V43.304H159.262V41.6136H165.422V42.9908L161.912 47.505V47.5597H165.551V49.25H159.133ZM170.432 49.3991C169.646 49.3991 168.97 49.2401 168.403 48.9219C167.84 48.6004 167.406 48.1463 167.101 47.5597C166.796 46.9697 166.643 46.272 166.643 45.4666C166.643 44.6811 166.796 43.9917 167.101 43.3984C167.406 42.8052 167.835 42.3428 168.388 42.0114C168.945 41.6799 169.598 41.5142 170.347 41.5142C170.851 41.5142 171.32 41.5954 171.754 41.7578C172.192 41.9169 172.573 42.1572 172.898 42.4787C173.226 42.8002 173.481 43.2045 173.663 43.6918C173.846 44.1757 173.937 44.7424 173.937 45.392V45.9737H167.489V44.6612H171.943C171.943 44.3563 171.877 44.0862 171.744 43.8509C171.612 43.6155 171.428 43.4316 171.192 43.299C170.96 43.1631 170.69 43.0952 170.382 43.0952C170.061 43.0952 169.775 43.1697 169.527 43.3189C169.282 43.4647 169.089 43.6619 168.95 43.9105C168.811 44.1558 168.74 44.4292 168.736 44.7308V45.9787C168.736 46.3565 168.806 46.683 168.945 46.9581C169.088 47.2332 169.288 47.4453 169.547 47.5945C169.805 47.7436 170.112 47.8182 170.467 47.8182C170.702 47.8182 170.917 47.785 171.113 47.7188C171.308 47.6525 171.476 47.553 171.615 47.4205C171.754 47.2879 171.86 47.1255 171.933 46.9332L173.892 47.0625C173.793 47.5331 173.589 47.9441 173.28 48.2955C172.976 48.6435 172.581 48.9152 172.097 49.1108C171.617 49.303 171.061 49.3991 170.432 49.3991ZM178.133 49.3743C177.553 49.3743 177.027 49.2251 176.557 48.9268C176.089 48.6252 175.718 48.1828 175.443 47.5994C175.171 47.0128 175.035 46.2936 175.035 45.4418C175.035 44.5668 175.176 43.8393 175.458 43.2592C175.74 42.6759 176.114 42.2401 176.582 41.9517C177.052 41.66 177.568 41.5142 178.128 41.5142C178.555 41.5142 178.912 41.5871 179.197 41.733C179.485 41.8755 179.717 42.0545 179.893 42.2699C180.072 42.482 180.208 42.6908 180.3 42.8963H180.365V39.0682H182.478V49.25H180.39V48.027H180.3C180.201 48.2391 180.06 48.4496 179.878 48.6584C179.699 48.8639 179.465 49.0346 179.177 49.1705C178.892 49.3063 178.544 49.3743 178.133 49.3743ZM178.804 47.6889C179.145 47.6889 179.434 47.5961 179.669 47.4105C179.908 47.2216 180.09 46.9581 180.216 46.62C180.345 46.282 180.41 45.8859 180.41 45.4318C180.41 44.9777 180.347 44.5833 180.221 44.2486C180.095 43.9138 179.913 43.6553 179.674 43.473C179.435 43.2907 179.145 43.1996 178.804 43.1996C178.456 43.1996 178.163 43.294 177.924 43.483C177.685 43.6719 177.505 43.9337 177.382 44.2685C177.259 44.6032 177.198 44.991 177.198 45.4318C177.198 45.8759 177.259 46.2687 177.382 46.6101C177.508 46.9482 177.689 47.2133 177.924 47.4055C178.163 47.5945 178.456 47.6889 178.804 47.6889Z" fill="#334155"/>
<path d="M187.459 49.25V41.6136H189.577V49.25H187.459ZM188.523 40.6293C188.208 40.6293 187.938 40.5249 187.713 40.3161C187.491 40.1039 187.38 39.8504 187.38 39.5554C187.38 39.2637 187.491 39.0135 187.713 38.8047C187.938 38.5926 188.208 38.4865 188.523 38.4865C188.838 38.4865 189.107 38.5926 189.329 38.8047C189.554 39.0135 189.667 39.2637 189.667 39.5554C189.667 39.8504 189.554 40.1039 189.329 40.3161C189.107 40.5249 188.838 40.6293 188.523 40.6293ZM193.392 44.8352V49.25H191.274V41.6136H193.292V42.9609H193.382C193.551 42.5168 193.834 42.1655 194.232 41.907C194.63 41.6451 195.112 41.5142 195.679 41.5142C196.209 41.5142 196.671 41.6302 197.066 41.8622C197.46 42.0942 197.767 42.4257 197.986 42.8565C198.204 43.2841 198.314 43.7945 198.314 44.3878V49.25H196.196V44.7656C196.199 44.2983 196.08 43.9337 195.838 43.6719C195.596 43.4067 195.263 43.2741 194.839 43.2741C194.553 43.2741 194.302 43.3355 194.083 43.4581C193.867 43.5807 193.698 43.7597 193.576 43.995C193.456 44.227 193.395 44.5071 193.392 44.8352ZM206.337 43.7912L204.398 43.9105C204.364 43.7448 204.293 43.5956 204.184 43.4631C204.074 43.3272 203.93 43.2195 203.751 43.1399C203.576 43.0571 203.365 43.0156 203.12 43.0156C202.792 43.0156 202.515 43.0852 202.29 43.2244C202.064 43.3603 201.952 43.5426 201.952 43.7713C201.952 43.9536 202.025 44.1077 202.17 44.2337C202.316 44.3596 202.566 44.4607 202.921 44.5369L204.303 44.8153C205.046 44.9678 205.599 45.2131 205.964 45.5511C206.328 45.8892 206.511 46.3333 206.511 46.8835C206.511 47.384 206.363 47.8232 206.068 48.201C205.776 48.5788 205.375 48.8738 204.865 49.0859C204.358 49.2947 203.773 49.3991 203.11 49.3991C202.099 49.3991 201.294 49.1887 200.694 48.7678C200.097 48.3435 199.748 47.7668 199.645 47.0376L201.728 46.9283C201.791 47.2365 201.943 47.4718 202.185 47.6342C202.427 47.7933 202.737 47.8729 203.115 47.8729C203.486 47.8729 203.784 47.8016 204.01 47.6591C204.239 47.5133 204.355 47.326 204.358 47.0973C204.355 46.9051 204.273 46.7476 204.114 46.625C203.955 46.4991 203.71 46.4029 203.378 46.3366L202.056 46.0732C201.31 45.924 200.755 45.6655 200.391 45.2976C200.029 44.9297 199.849 44.4607 199.849 43.8906C199.849 43.4001 199.981 42.9775 200.246 42.6229C200.515 42.2682 200.891 41.9948 201.375 41.8026C201.862 41.6103 202.432 41.5142 203.085 41.5142C204.05 41.5142 204.809 41.718 205.362 42.1257C205.919 42.5334 206.244 43.0885 206.337 43.7912ZM207.844 49.25V41.6136H209.962V49.25H207.844ZM208.908 40.6293C208.593 40.6293 208.323 40.5249 208.098 40.3161C207.876 40.1039 207.765 39.8504 207.765 39.5554C207.765 39.2637 207.876 39.0135 208.098 38.8047C208.323 38.5926 208.593 38.4865 208.908 38.4865C209.223 38.4865 209.491 38.5926 209.714 38.8047C209.939 39.0135 210.052 39.2637 210.052 39.5554C210.052 39.8504 209.939 40.1039 209.714 40.3161C209.491 40.5249 209.223 40.6293 208.908 40.6293ZM215.099 52.2727C214.413 52.2727 213.825 52.1783 213.334 51.9893C212.847 51.8037 212.459 51.5502 212.171 51.2287C211.882 50.9072 211.695 50.5459 211.609 50.1449L213.568 49.8814C213.627 50.0339 213.722 50.1764 213.851 50.3089C213.98 50.4415 214.151 50.5476 214.363 50.6271C214.579 50.71 214.84 50.7514 215.149 50.7514C215.609 50.7514 215.989 50.6387 216.287 50.4134C216.589 50.1913 216.74 49.8184 216.74 49.2947V47.8977H216.65C216.557 48.1098 216.418 48.3104 216.233 48.4993C216.047 48.6882 215.808 48.8423 215.517 48.9616C215.225 49.081 214.877 49.1406 214.473 49.1406C213.899 49.1406 213.377 49.008 212.907 48.7429C212.439 48.4744 212.066 48.0651 211.788 47.5149C211.513 46.9614 211.375 46.2621 211.375 45.4169C211.375 44.5518 211.516 43.8293 211.798 43.2493C212.08 42.6693 212.454 42.2351 212.921 41.9467C213.392 41.6584 213.907 41.5142 214.468 41.5142C214.895 41.5142 215.253 41.5871 215.541 41.733C215.83 41.8755 216.062 42.0545 216.237 42.2699C216.416 42.482 216.554 42.6908 216.65 42.8963H216.73V41.6136H218.833V49.3246C218.833 49.9742 218.674 50.5178 218.355 50.9553C218.037 51.3928 217.596 51.7209 217.033 51.9396C216.473 52.1617 215.828 52.2727 215.099 52.2727ZM215.144 47.5497C215.485 47.5497 215.773 47.4652 216.009 47.2962C216.247 47.1238 216.43 46.8786 216.556 46.5604C216.685 46.2389 216.75 45.8544 216.75 45.407C216.75 44.9595 216.687 44.5717 216.561 44.2436C216.435 43.9122 216.252 43.6553 216.014 43.473C215.775 43.2907 215.485 43.1996 215.144 43.1996C214.796 43.1996 214.502 43.294 214.264 43.483C214.025 43.6686 213.844 43.9271 213.722 44.2585C213.599 44.59 213.538 44.9728 213.538 45.407C213.538 45.8478 213.599 46.2289 213.722 46.5504C213.848 46.8686 214.028 47.1155 214.264 47.2912C214.502 47.4635 214.796 47.5497 215.144 47.5497ZM222.636 44.8352V49.25H220.518V39.0682H222.576V42.9609H222.666C222.838 42.5102 223.117 42.1572 223.501 41.902C223.885 41.6435 224.368 41.5142 224.948 41.5142C225.478 41.5142 225.94 41.6302 226.335 41.8622C226.733 42.0909 227.041 42.4207 227.259 42.8516C227.482 43.2791 227.591 43.7912 227.588 44.3878V49.25H225.47V44.7656C225.473 44.295 225.354 43.9287 225.112 43.6669C224.873 43.4051 224.538 43.2741 224.108 43.2741C223.819 43.2741 223.564 43.3355 223.342 43.4581C223.123 43.5807 222.951 43.7597 222.825 43.995C222.702 44.227 222.639 44.5071 222.636 44.8352ZM233.316 41.6136V43.2045H228.717V41.6136H233.316ZM229.761 39.7841H231.879V46.9034C231.879 47.099 231.909 47.2514 231.969 47.3608C232.028 47.4669 232.111 47.5414 232.217 47.5845C232.327 47.6276 232.453 47.6491 232.595 47.6491C232.695 47.6491 232.794 47.6409 232.894 47.6243C232.993 47.6044 233.069 47.5895 233.122 47.5795L233.455 49.1555C233.349 49.1887 233.2 49.2268 233.008 49.2699C232.816 49.3163 232.582 49.3445 232.307 49.3544C231.796 49.3743 231.349 49.3063 230.965 49.1506C230.583 48.9948 230.287 48.7528 230.075 48.4247C229.863 48.0966 229.758 47.6823 229.761 47.1818V39.7841ZM240.954 43.7912L239.015 43.9105C238.982 43.7448 238.91 43.5956 238.801 43.4631C238.692 43.3272 238.547 43.2195 238.369 43.1399C238.193 43.0571 237.982 43.0156 237.737 43.0156C237.409 43.0156 237.132 43.0852 236.907 43.2244C236.681 43.3603 236.569 43.5426 236.569 43.7713C236.569 43.9536 236.642 44.1077 236.788 44.2337C236.933 44.3596 237.184 44.4607 237.538 44.5369L238.92 44.8153C239.663 44.9678 240.216 45.2131 240.581 45.5511C240.945 45.8892 241.128 46.3333 241.128 46.8835C241.128 47.384 240.98 47.8232 240.685 48.201C240.394 48.5788 239.993 48.8738 239.482 49.0859C238.975 49.2947 238.39 49.3991 237.727 49.3991C236.716 49.3991 235.911 49.1887 235.311 48.7678C234.714 48.3435 234.365 47.7668 234.262 47.0376L236.345 46.9283C236.408 47.2365 236.561 47.4718 236.802 47.6342C237.044 47.7933 237.354 47.8729 237.732 47.8729C238.103 47.8729 238.402 47.8016 238.627 47.6591C238.856 47.5133 238.972 47.326 238.975 47.0973C238.972 46.9051 238.891 46.7476 238.731 46.625C238.572 46.4991 238.327 46.4029 237.996 46.3366L236.673 46.0732C235.927 45.924 235.372 45.6655 235.008 45.2976C234.646 44.9297 234.466 44.4607 234.466 43.8906C234.466 43.4001 234.598 42.9775 234.864 42.6229C235.132 42.2682 235.508 41.9948 235.992 41.8026C236.479 41.6103 237.049 41.5142 237.702 41.5142C238.667 41.5142 239.426 41.718 239.979 42.1257C240.536 42.5334 240.861 43.0885 240.954 43.7912Z" fill="#A93691"/>
</g>
<defs>
<filter id="filter0_d_564_3629" x="0" y="0" width="306" height="100" filterUnits="userSpaceOnUse" color-interpolation-filters="sRGB">
<feFlood flood-opacity="0" result="BackgroundImageFix"/>
<feColorMatrix in="SourceAlpha" type="matrix" values="0 0 0 0 0 0 0 0 0 0 0 0 0 0 0 0 0 0 127 0" result="hardAlpha"/>
<feOffset dy="6"/>
<feGaussianBlur stdDeviation="6"/>
<feColorMatrix type="matrix" values="0 0 0 0 0 0 0 0 0 0 0 0 0 0 0 0 0 0 0.11 0"/>
<feBlend mode="normal" in2="BackgroundImageFix" result="effect1_dropShadow_564_3629"/>
<feBlend mode="normal" in="SourceGraphic" in2="effect1_dropShadow_564_3629" result="shape"/>
</filter>
<filter id="filter1_i_564_3629" x="36" y="21.75" width="44" height="44" filterUnits="userSpaceOnUse" color-interpolation-filters="sRGB">
<feFlood flood-opacity="0" result="BackgroundImageFix"/>
<feBlend mode="normal" in="SourceGraphic" in2="BackgroundImageFix" result="shape"/>
<feColorMatrix in="SourceAlpha" type="matrix" values="0 0 0 0 0 0 0 0 0 0 0 0 0 0 0 0 0 0 127 0" result="hardAlpha"/>
<feOffset/>
<feGaussianBlur stdDeviation="2.5"/>
<feComposite in2="hardAlpha" operator="arithmetic" k2="-1" k3="1"/>
<feColorMatrix type="matrix" values="0 0 0 0 0.0392157 0 0 0 0 0.360784 0 0 0 0 0.341176 0 0 0 1 0"/>
<feBlend mode="normal" in2="shape" result="effect1_innerShadow_564_3629"/>
</filter>
<radialGradient id="paint0_radial_564_3629" cx="0" cy="0" r="1" gradientUnits="userSpaceOnUse" gradientTransform="translate(58 43.75) rotate(45) scale(31.1127)">
<stop stop-color="#FA8701" stop-opacity="0.93"/>
<stop offset="1" stop-color="#7A4303" stop-opacity="0.93"/>
</radialGradient>
</defs>
</svg>
