<svg width="37" height="39" viewBox="0 0 37 39" fill="none" xmlns="http://www.w3.org/2000/svg">
<g clip-path="url(#clip0_631_3670)">
<path d="M18.5 37.9253C28.7173 37.9253 37 29.6426 37 19.4253C37 9.20802 28.7173 0.925293 18.5 0.925293C8.28273 0.925293 0 9.20802 0 19.4253C0 29.6426 8.28273 37.9253 18.5 37.9253Z" fill="#FFDEF8"/>
<path d="M11.5007 22.3908L11.9173 22.4491L15.7257 18.6408C15.6492 18.3609 15.6491 18.0657 15.7253 17.7859C15.8015 17.506 15.9513 17.2516 16.159 17.0491C16.809 16.3908 17.859 16.3908 18.509 17.0491C18.9507 17.4824 19.0923 18.0991 18.9423 18.6408L21.084 20.7824L21.5007 20.7241C21.6507 20.7241 21.7923 20.7241 21.9173 20.7824L24.8923 17.8074C24.834 17.6824 24.834 17.5408 24.834 17.3908C24.834 16.9487 25.0096 16.5248 25.3221 16.2123C25.6347 15.8997 26.0586 15.7241 26.5007 15.7241C26.9427 15.7241 27.3666 15.8997 27.6792 16.2123C27.9917 16.5248 28.1673 16.9487 28.1673 17.3908C28.1673 17.8328 27.9917 18.2567 27.6792 18.5693C27.3666 18.8818 26.9427 19.0574 26.5007 19.0574C26.3507 19.0574 26.209 19.0574 26.084 18.9991L23.109 21.9741C23.1673 22.0991 23.1673 22.2408 23.1673 22.3908C23.1673 22.8328 22.9917 23.2567 22.6792 23.5693C22.3666 23.8818 21.9427 24.0574 21.5007 24.0574C21.0586 24.0574 20.6347 23.8818 20.3221 23.5693C20.0096 23.2567 19.834 22.8328 19.834 22.3908L19.8923 21.9741L17.7507 19.8324C17.484 19.8908 17.184 19.8908 16.9173 19.8324L13.109 23.6408L13.1673 24.0574C13.1673 24.4995 12.9917 24.9234 12.6792 25.2359C12.3666 25.5485 11.9427 25.7241 11.5007 25.7241C11.0586 25.7241 10.6347 25.5485 10.3221 25.2359C10.0096 24.9234 9.83398 24.4995 9.83398 24.0574C9.83398 23.6154 10.0096 23.1915 10.3221 22.8789C10.6347 22.5664 11.0586 22.3908 11.5007 22.3908Z" fill="#5E075F"/>
</g>
<defs>
<clipPath id="clip0_631_3670">
<rect width="37" height="38" fill="white" transform="translate(0 0.724121)"/>
</clipPath>
</defs>
</svg>
