<svg width="137" height="47" viewBox="0 0 137 47" fill="none" xmlns="http://www.w3.org/2000/svg">
<path d="M125.741 0.657863H10.8858C10.467 0.657863 10.0534 0.657863 9.63585 0.66014C9.28633 0.662417 8.93961 0.669032 8.58672 0.674599C7.82008 0.683595 7.05525 0.750851 6.29886 0.875784C5.54355 1.00344 4.81189 1.2441 4.12863 1.58962C3.44622 1.93808 2.82267 2.39086 2.28062 2.93153C1.73573 3.47069 1.28152 4.09388 0.935455 4.77715C0.588432 5.45905 0.347807 6.18978 0.221889 6.94408C0.0947734 7.69744 0.0263714 8.45948 0.0172968 9.22336C0.00670177 9.57246 0.00558291 9.92268 0 10.2718V36.5875C0.00558291 36.9409 0.00670177 37.2834 0.0172968 37.637C0.0263742 38.4008 0.094776 39.1628 0.221889 39.9162C0.34746 40.6709 0.588098 41.4021 0.935455 42.0842C1.28136 42.7652 1.73564 43.386 2.28062 43.9221C2.82061 44.4652 3.44457 44.9182 4.12863 45.2641C4.81188 45.6105 5.54346 45.8526 6.29886 45.9822C7.05538 46.1061 7.82013 46.1735 8.58672 46.1836C8.93961 46.1913 9.28633 46.1957 9.63585 46.1957C10.0534 46.198 10.4671 46.198 10.8858 46.198H125.741C126.151 46.198 126.568 46.198 126.978 46.1957C127.327 46.1957 127.683 46.1913 128.031 46.1836C128.796 46.174 129.559 46.1067 130.314 45.9822C131.072 45.8517 131.806 45.6097 132.493 45.2641C133.176 44.9181 133.799 44.465 134.339 43.9221C134.883 43.3839 135.338 42.7637 135.689 42.0842C136.033 41.4016 136.272 40.6705 136.395 39.9162C136.522 39.1628 136.593 38.4009 136.607 37.637C136.612 37.2834 136.612 36.9409 136.612 36.5875C136.62 36.1738 136.62 35.7625 136.62 35.3421V11.5147C136.62 11.0979 136.62 10.6842 136.612 10.2718C136.612 9.92268 136.612 9.57246 136.607 9.22332C136.593 8.45937 136.522 7.6975 136.395 6.94404C136.271 6.19017 136.033 5.4595 135.689 4.77711C134.984 3.40757 133.866 2.29278 132.493 1.58952C131.806 1.24484 131.072 1.00424 130.314 0.875681C129.56 0.750199 128.796 0.682919 128.031 0.674439C127.683 0.668884 127.327 0.662212 126.978 0.659992C126.568 0.657715 126.151 0.657715 125.741 0.657715V0.657863Z" fill="#B1B8C7"/>
<path d="M9.76472 45.0577C9.41756 45.0577 9.0789 45.0533 8.73446 45.0456C8.02101 45.0364 7.30924 44.9748 6.60496 44.8612C5.94826 44.7489 5.31209 44.54 4.71744 44.2415C4.12825 43.9454 3.59085 43.5572 3.12585 43.0917C2.65412 42.6317 2.26138 42.0982 1.96319 41.5122C1.66172 40.9226 1.45308 40.2905 1.34455 39.638C1.22735 38.9369 1.16393 38.228 1.15486 37.5173C1.14764 37.2788 1.13818 36.4846 1.13818 36.4846V10.3578C1.13818 10.3578 1.14825 9.57583 1.15492 9.3461C1.16361 8.6366 1.22665 7.92878 1.34351 7.22878C1.45224 6.57452 1.66104 5.94059 1.96267 5.34894C2.25976 4.76344 2.65032 4.22951 3.1192 3.76785C3.58758 3.30182 4.12669 2.9116 4.71688 2.61144C5.31017 2.31385 5.94514 2.10647 6.6005 1.99624C7.30709 1.88152 8.02134 1.8195 8.73726 1.81069L9.76524 1.79688H126.849L127.889 1.81125C128.599 1.81961 129.306 1.88108 130.006 1.99513C130.668 2.10675 131.31 2.31558 131.91 2.61475C133.092 3.21966 134.055 4.1767 134.662 5.3517C134.959 5.93927 135.164 6.56803 135.271 7.21663C135.39 7.92238 135.455 8.63576 135.469 9.35107C135.473 9.67137 135.473 10.0155 135.473 10.3578C135.482 10.7819 135.482 11.1857 135.482 11.5926V35.263C135.482 35.6739 135.482 36.0748 135.473 36.4791C135.473 36.8469 135.473 37.1838 135.468 37.5305C135.454 38.2331 135.39 38.9338 135.273 39.6269C135.167 40.2841 134.96 40.9211 134.658 41.5157C134.358 42.0952 133.967 42.6241 133.501 43.0828C133.036 43.5509 132.497 43.9414 131.907 44.2393C131.308 44.5402 130.667 44.7498 130.006 44.8612C129.302 44.9754 128.59 45.037 127.877 45.0456C127.544 45.0533 127.194 45.0577 126.854 45.0577L125.619 45.06L9.76472 45.0577Z" fill="#090A0A"/>
<path d="M48.5982 13.4084C48.5982 14.3192 48.3699 15.1162 47.799 15.6854C47.114 16.3685 46.3148 16.7101 45.2873 16.7101C44.2598 16.7101 43.4606 16.3685 42.7756 15.6854C42.0906 15.0023 41.748 14.2054 41.748 13.1807C41.748 12.1561 42.0906 11.3591 42.7756 10.676C43.4606 9.99292 44.2598 9.65137 45.2873 9.65137C45.744 9.65137 46.2006 9.76522 46.6574 9.99292C47.114 10.2206 47.4565 10.4483 47.6849 10.7899L47.114 11.3591C46.6574 10.7899 46.0865 10.5622 45.2873 10.5622C44.6023 10.5622 43.9172 10.7899 43.4606 11.3591C42.8897 11.8145 42.6614 12.4976 42.6614 13.2946C42.6614 14.0915 42.8897 14.7746 43.4606 15.23C44.0314 15.6854 44.6023 16.027 45.2873 16.027C46.0865 16.027 46.6574 15.7993 47.2282 15.23C47.5707 14.8885 47.799 14.4331 47.799 13.8638H45.2873V13.0669H48.5982C48.5982 13.0669 48.5982 13.2946 48.5982 13.4084Z" fill="white"/>
<path d="M53.85 10.5611H50.7673V12.7243H53.6217V13.5212H50.7673V15.6844H53.85V16.5952H49.854V9.76416H53.85V10.5611Z" fill="white"/>
<path d="M57.6174 16.5952H56.7041V10.5611H54.7632V9.76416H59.5583V10.5611H57.6174V16.5952Z" fill="white"/>
<path d="M62.8694 16.5952V9.76416H63.7827V16.5952H62.8694Z" fill="white"/>
<path d="M67.6648 16.5952H66.7514V10.5611H64.8105V9.76416H69.4915V10.5611H67.5507V16.5952H67.6648Z" fill="white"/>
<path d="M78.5109 15.6854C77.8259 16.3685 77.0268 16.7101 75.9992 16.7101C74.9717 16.7101 74.1725 16.3685 73.4875 15.6854C72.8025 15.0023 72.46 14.2054 72.46 13.1807C72.46 12.1561 72.8025 11.3591 73.4875 10.676C74.1725 9.99292 74.9717 9.65137 75.9992 9.65137C77.0268 9.65137 77.8259 9.99292 78.5109 10.676C79.196 11.3591 79.5385 12.1561 79.5385 13.1807C79.5385 14.2054 79.196 15.0023 78.5109 15.6854ZM74.1725 15.1162C74.6292 15.5716 75.3142 15.9131 75.9992 15.9131C76.6842 15.9131 77.3693 15.6854 77.8259 15.1162C78.2826 14.6608 78.6251 13.9777 78.6251 13.1807C78.6251 12.3838 78.3968 11.7007 77.8259 11.2453C77.3693 10.7899 76.6842 10.4483 75.9992 10.4483C75.3142 10.4483 74.6292 10.676 74.1725 11.2453C73.7158 11.7007 73.3733 12.3838 73.3733 13.1807C73.3733 13.9777 73.6016 14.6608 74.1725 15.1162Z" fill="white"/>
<path d="M80.7942 16.5952V9.76416H81.8217L85.1327 15.1151V13.7489V9.76416H86.046V16.5952H85.1327L81.5934 11.0165V12.3827V16.5952H80.7942Z" fill="white"/>
<path d="M67.5179 26.2057C65.1697 26.2057 63.3107 27.9236 63.3107 30.3095C63.3107 32.6 65.1697 34.4133 67.5179 34.4133C69.866 34.4133 71.725 32.6955 71.725 30.3095C71.725 27.8282 69.866 26.2057 67.5179 26.2057ZM67.5179 32.6955C66.2459 32.6955 65.1697 31.6456 65.1697 30.2141C65.1697 28.7825 66.2459 27.7327 67.5179 27.7327C68.7897 27.7327 69.866 28.6871 69.866 30.2141C69.866 31.6456 68.7897 32.6955 67.5179 32.6955ZM58.4187 26.2057C56.0705 26.2057 54.2115 27.9236 54.2115 30.3095C54.2115 32.6 56.0705 34.4133 58.4187 34.4133C60.7668 34.4133 62.6258 32.6955 62.6258 30.3095C62.6258 27.8282 60.7668 26.2057 58.4187 26.2057ZM58.4187 32.6955C57.1467 32.6955 56.0705 31.6456 56.0705 30.2141C56.0705 28.7825 57.1467 27.7327 58.4187 27.7327C59.6906 27.7327 60.7668 28.6871 60.7668 30.2141C60.7668 31.6456 59.6906 32.6955 58.4187 32.6955ZM47.5583 27.4464V29.1643H51.7655C51.6676 30.1187 51.2763 30.8821 50.7871 31.3593C50.2 31.932 49.2217 32.6 47.5583 32.6C44.9167 32.6 42.9598 30.5958 42.9598 28.019C42.9598 25.4422 45.0145 23.438 47.5583 23.438C48.9281 23.438 50.0044 24.0107 50.7871 24.6787L52.059 23.438C50.9828 22.4837 49.613 21.7202 47.6562 21.7202C44.1339 21.7202 41.1008 24.5833 41.1008 28.019C41.1008 31.4548 44.1339 34.3178 47.6562 34.3178C49.613 34.3178 50.9828 33.7453 52.1568 32.5046C53.331 31.3593 53.7223 29.7369 53.7223 28.4962C53.7223 28.1145 53.7223 27.7327 53.6245 27.4464H47.5583ZM91.9777 28.7825C91.5863 27.8282 90.608 26.2057 88.4554 26.2057C86.3033 26.2057 84.5421 27.8282 84.5421 30.3095C84.5421 32.6 86.3032 34.4133 88.6515 34.4133C90.5108 34.4133 91.6843 33.268 92.0758 32.6L90.7061 31.6456C90.2165 32.3137 89.6298 32.7908 88.6515 32.7908C87.6733 32.7908 87.0859 32.4091 86.5967 31.5502L92.1739 29.2597L91.9777 28.7825ZM86.3033 30.1187C86.3033 28.5917 87.5751 27.7327 88.4554 27.7327C89.1402 27.7327 89.8251 28.1145 90.0213 28.5917L86.3033 30.1187ZM81.7048 34.0315H83.5637V22.102H81.7048V34.0315ZM78.7695 27.0647C78.2803 26.5875 77.4975 26.1103 76.5192 26.1103C74.4645 26.1103 72.5077 27.9236 72.5077 30.2141C72.5077 32.5046 74.3667 34.2224 76.5192 34.2224C77.4975 34.2224 78.2803 33.7453 78.6717 33.268H78.7695V33.8407C78.7695 35.3676 77.8889 36.2266 76.5192 36.2266C75.4429 36.2266 74.6602 35.4631 74.4645 34.795L72.899 35.4631C73.3882 36.5129 74.5624 37.849 76.617 37.849C78.7695 37.849 80.5306 36.6083 80.5306 33.6498V26.3966H78.7695V27.0647ZM76.617 32.6955C75.3451 32.6955 74.2688 31.6456 74.2688 30.2141C74.2688 28.7825 75.3451 27.7327 76.617 27.7327C77.8889 27.7327 78.8673 28.7825 78.8673 30.2141C78.8673 31.6456 77.8889 32.6955 76.617 32.6955ZM100.49 22.102H96.0877V34.0315H97.9461V29.546H100.49C102.545 29.546 104.501 28.1145 104.501 25.824C104.501 23.5335 102.545 22.102 100.49 22.102ZM100.588 27.8282H97.9461V23.7244H100.588C101.958 23.7244 102.74 24.8697 102.74 25.7285C102.643 26.7783 101.86 27.8282 100.588 27.8282ZM111.839 26.1103C110.47 26.1103 109.1 26.6829 108.611 27.9236L110.274 28.5917C110.666 27.9236 111.253 27.7327 111.937 27.7327C112.916 27.7327 113.797 28.3053 113.894 29.2597V29.3552C113.601 29.1643 112.818 28.878 112.036 28.878C110.274 28.878 108.513 29.8323 108.513 31.5502C108.513 33.1726 109.981 34.2224 111.546 34.2224C112.818 34.2224 113.405 33.6498 113.894 33.0772H113.992V34.0315H115.753V29.4506C115.558 27.351 113.894 26.1103 111.839 26.1103ZM111.644 32.6955C111.057 32.6955 110.176 32.4091 110.176 31.6456C110.176 30.6913 111.253 30.405 112.133 30.405C112.916 30.405 113.307 30.5958 113.797 30.7867C113.601 31.932 112.622 32.6955 111.644 32.6955ZM121.917 26.3966L119.862 31.5502H119.765L117.612 26.3966H115.655L118.884 33.6498L117.025 37.6581H118.884L123.874 26.3966H121.917ZM105.48 34.0315H107.339V22.102H105.48V34.0315Z" fill="white"/>
<path d="M12.9673 12.3369C12.701 12.6025 12.5234 13.0451 12.5234 13.5763V33.1409C12.5234 33.672 12.701 34.1146 12.9673 34.3803L13.0561 34.4687L24.0643 23.4914V23.4028V23.3144L12.9673 12.3369Z" fill="url(#paint0_linear_5204_17585)"/>
<path d="M27.7048 27.2099L24.0649 23.5802V23.4031V23.3146L27.7048 19.6851L27.7935 19.7735L32.1436 22.2523C33.3864 22.9605 33.3864 24.1114 32.1436 24.8196L27.7048 27.2099Z" fill="url(#paint1_linear_5204_17585)"/>
<path d="M27.7931 27.1219L24.0645 23.4038L12.9675 34.4697C13.4115 34.9123 14.0328 34.9123 14.8319 34.5582L27.7931 27.1219Z" fill="url(#paint2_linear_5204_17585)"/>
<path d="M27.7931 19.6851L14.8319 12.3374C14.0328 11.8948 13.4115 11.9833 12.9675 12.4259L24.0645 23.4033L27.7931 19.6851Z" fill="url(#paint3_linear_5204_17585)"/>
<path opacity="0.2" d="M27.7043 27.0337L14.8318 34.293C14.1216 34.7356 13.5002 34.647 13.0562 34.293L12.9675 34.3815L13.0562 34.47C13.5002 34.8241 14.1216 34.9127 14.8318 34.47L27.7043 27.0337Z" fill="black"/>
<path opacity="0.12" d="M12.9676 34.2902C12.7013 34.0246 12.6125 33.5819 12.6125 33.0508V33.1393C12.6125 33.6705 12.7901 34.1132 13.0564 34.3787V34.2902H12.9676Z" fill="black"/>
<path opacity="0.12" d="M32.1431 24.5547L27.7043 27.0334L27.7931 27.1219L32.1431 24.6432C32.7646 24.289 33.0309 23.8464 33.0309 23.4038C33.0309 23.8464 32.6757 24.2005 32.1431 24.5547Z" fill="black"/>
<path opacity="0.25" d="M14.8317 12.4253L32.143 22.2518C32.6756 22.6059 33.0307 22.96 33.0307 23.4027C33.0307 22.96 32.7644 22.5174 32.143 22.1633L14.8317 12.3368C13.5889 11.6285 12.6123 12.2482 12.6123 13.6647V13.7532C12.6123 12.3368 13.5889 11.7171 14.8317 12.4253Z" fill="#DEF5F2"/>
<defs>
<linearGradient id="paint0_linear_5204_17585" x1="23.0874" y1="13.4079" x2="8.23054" y2="28.3065" gradientUnits="userSpaceOnUse">
<stop stop-color="#00A0FF"/>
<stop offset="0.00657445" stop-color="#00A1FF"/>
<stop offset="0.2601" stop-color="#00BEFF"/>
<stop offset="0.5122" stop-color="#00D2FF"/>
<stop offset="0.7604" stop-color="#00DFFF"/>
<stop offset="1" stop-color="#00E3FF"/>
</linearGradient>
<linearGradient id="paint1_linear_5204_17585" x1="33.7721" y1="23.4044" x2="12.2911" y2="23.4044" gradientUnits="userSpaceOnUse">
<stop stop-color="#FFE000"/>
<stop offset="0.4087" stop-color="#FFBD00"/>
<stop offset="0.7754" stop-color="#FFA500"/>
<stop offset="1" stop-color="#FF9C00"/>
</linearGradient>
<linearGradient id="paint2_linear_5204_17585" x1="25.7752" y1="25.4365" x2="5.628" y2="45.6403" gradientUnits="userSpaceOnUse">
<stop stop-color="#FF3A44"/>
<stop offset="1" stop-color="#C31162"/>
</linearGradient>
<linearGradient id="paint3_linear_5204_17585" x1="10.2131" y1="5.85382" x2="19.2098" y2="14.8756" gradientUnits="userSpaceOnUse">
<stop stop-color="#32A071"/>
<stop offset="0.0685" stop-color="#2DA771"/>
<stop offset="0.4762" stop-color="#15CF74"/>
<stop offset="0.8009" stop-color="#06E775"/>
<stop offset="1" stop-color="#00F076"/>
</linearGradient>
</defs>
</svg>
