<svg width="25" height="25" viewBox="0 0 25 25" fill="none" xmlns="http://www.w3.org/2000/svg">
<g clip-path="url(#clip0_1277_91)">
<path d="M12.5 25C19.4036 25 25 19.4036 25 12.5C25 5.59644 19.4036 0 12.5 0C5.59644 0 0 5.59644 0 12.5C0 19.4036 5.59644 25 12.5 25Z" fill="#737373" fill-opacity="0.2"/>
<path d="M6.45459 14.3334L6.81817 14.38L10.1419 11.3334C10.0751 11.1094 10.075 10.8733 10.1415 10.6494C10.208 10.4255 10.3388 10.222 10.52 10.06C11.0873 9.53336 12.0037 9.53336 12.5709 10.06C12.9564 10.4066 13.08 10.9 12.9491 11.3334L14.8182 13.0466L15.1819 13C15.3128 13 15.4364 13 15.5455 13.0466L18.1418 10.6666C18.0909 10.5666 18.0909 10.4534 18.0909 10.3334C18.0909 9.97968 18.2442 9.64056 18.5169 9.39056C18.7897 9.14048 19.1597 9 19.5455 9C19.9313 9 20.3012 9.14048 20.574 9.39056C20.8467 9.64056 21 9.97968 21 10.3334C21 10.687 20.8467 11.0261 20.574 11.2762C20.3012 11.5262 19.9313 11.6666 19.5455 11.6666C19.4146 11.6666 19.2909 11.6666 19.1818 11.62L16.5855 14C16.6364 14.1 16.6364 14.2134 16.6364 14.3334C16.6364 14.687 16.4831 15.0261 16.2104 15.2762C15.9376 15.5262 15.5676 15.6666 15.1819 15.6666C14.796 15.6666 14.4261 15.5262 14.1533 15.2762C13.8805 15.0261 13.7273 14.687 13.7273 14.3334L13.7782 14L11.9091 12.2866C11.6764 12.3334 11.4146 12.3334 11.1818 12.2866L7.8582 15.3334L7.90908 15.6666C7.90908 16.0203 7.75583 16.3594 7.4831 16.6094C7.21029 16.8595 6.84034 17 6.45459 17C6.06876 17 5.69881 16.8595 5.426 16.6094C5.15327 16.3594 5 16.0203 5 15.6666C5 15.313 5.15327 14.9739 5.426 14.7238C5.69881 14.4738 6.06876 14.3334 6.45459 14.3334Z" fill="#242627"/>
</g>
<defs>
<clipPath id="clip0_1277_91">
<rect width="25" height="25" fill="white"/>
</clipPath>
</defs>
</svg>
