<svg width="37" height="39" viewBox="0 0 37 39" fill="none" xmlns="http://www.w3.org/2000/svg">
<g clip-path="url(#clip0_631_3662)">
<path d="M18.5 37.9253C28.7173 37.9253 37 29.6426 37 19.4253C37 9.20802 28.7173 0.925293 18.5 0.925293C8.28273 0.925293 0 9.20802 0 19.4253C0 29.6426 8.28273 37.9253 18.5 37.9253Z" fill="#FFDEF8"/>
<mask id="mask0_631_3662" style="mask-type:luminance" maskUnits="userSpaceOnUse" x="11" y="11" width="15" height="16">
<path d="M26 11.7241H11V26.7241H26V11.7241Z" fill="white"/>
</mask>
<g mask="url(#mask0_631_3662)">
<path d="M17.9643 11.7913C17.9643 12.1098 17.9643 12.3779 17.9643 12.6628C17.9643 14.8751 17.9643 17.1042 17.9643 19.3165C17.9643 19.6349 18.0647 19.8193 18.3493 19.9701C20.2913 21.1265 22.2165 22.2997 24.1418 23.4729C24.2589 23.5399 24.3761 23.6237 24.4766 23.6908C22.6183 26.3053 18.8851 27.5791 15.4699 26.1042C12.1886 24.6796 10.3639 21.026 11.2009 17.4561C12.0714 13.8193 15.3694 11.8249 17.9643 11.7913Z" fill="#5E075F"/>
<path d="M18.6844 11.7241C21.5806 11.9085 23.7737 13.2157 25.1129 15.7632C26.4187 18.2269 26.2513 20.7241 24.8786 23.171C23.4388 22.2995 22.0158 21.4448 20.5928 20.5733C20.0236 20.2213 19.4377 19.8861 18.8853 19.5174C18.7681 19.4336 18.6509 19.266 18.6341 19.1319C18.6174 16.7185 18.6174 14.3051 18.6341 11.8917C18.6341 11.8749 18.6509 11.8247 18.6844 11.7241Z" fill="white"/>
</g>
</g>
<defs>
<clipPath id="clip0_631_3662">
<rect width="37" height="38" fill="white" transform="translate(0 0.724121)"/>
</clipPath>
</defs>
</svg>
